<svg width="32" height="32" viewBox="0 0 32 32" fill="none" xmlns="http://www.w3.org/2000/svg">
<rect width="32" height="32" rx="16" fill="#011E00"/>
<rect x="0.5" y="0.5" width="31" height="31" rx="15.5" stroke="white" stroke-opacity="0.25"/>
<path d="M17.9831 10.0128L18.6231 8.85818C18.6313 8.84339 18.6365 8.82712 18.6384 8.81032C18.6403 8.79352 18.6388 8.77651 18.6342 8.76026C18.6295 8.74401 18.6217 8.72884 18.6111 8.71561C18.6006 8.70239 18.5876 8.69137 18.5728 8.68318C18.558 8.675 18.5417 8.6698 18.5249 8.6679C18.5081 8.666 18.4911 8.66743 18.4748 8.6721C18.4586 8.67678 18.4434 8.68461 18.4302 8.69514C18.417 8.70568 18.4059 8.71872 18.3978 8.73351L17.7511 9.90018C17.1991 9.65815 16.6028 9.53319 16.0001 9.53319C15.3973 9.53319 14.8011 9.65815 14.2491 9.90018L13.6024 8.73351C13.5859 8.70346 13.5581 8.6812 13.5252 8.67163C13.4922 8.66207 13.4568 8.66598 13.4268 8.68251C13.3967 8.69905 13.3744 8.72684 13.3649 8.75979C13.3553 8.79273 13.3592 8.82812 13.3758 8.85818L14.0158 10.0128C13.4068 10.3132 12.8923 10.7754 12.5287 11.3488C12.1651 11.9222 11.9664 12.5846 11.9544 13.2635H20.0458C20.0336 12.5845 19.8347 11.922 19.4709 11.3485C19.107 10.7751 18.5923 10.313 17.9831 10.0128ZM14.1331 11.7828C14.0662 11.7828 14.0008 11.763 13.9452 11.7258C13.8896 11.6887 13.8463 11.6358 13.8208 11.574C13.7952 11.5122 13.7885 11.4442 13.8016 11.3787C13.8147 11.3131 13.847 11.2529 13.8943 11.2056C13.9417 11.1584 14.002 11.1262 14.0676 11.1133C14.1332 11.1003 14.2012 11.1071 14.2629 11.1328C14.3247 11.1585 14.3774 11.2019 14.4145 11.2576C14.4515 11.3132 14.4712 11.3786 14.4711 11.4455C14.4709 11.535 14.4352 11.6208 14.3719 11.6841C14.3085 11.7473 14.2226 11.7828 14.1331 11.7828ZM17.8678 11.7828C17.8009 11.7828 17.7355 11.763 17.6799 11.7258C17.6243 11.6887 17.581 11.6358 17.5554 11.574C17.5299 11.5122 17.5232 11.4442 17.5363 11.3787C17.5494 11.3131 17.5817 11.2529 17.629 11.2056C17.6763 11.1584 17.7366 11.1262 17.8022 11.1133C17.8678 11.1003 17.9358 11.1071 17.9976 11.1328C18.0593 11.1585 18.1121 11.2019 18.1491 11.2576C18.1862 11.3132 18.2059 11.3786 18.2058 11.4455C18.2056 11.535 18.1699 11.6208 18.1065 11.6841C18.0432 11.7473 17.9573 11.7828 17.8678 11.7828ZM11.9531 19.4475C11.9529 19.5762 11.9781 19.7037 12.0273 19.8227C12.0765 19.9416 12.1487 20.0497 12.2398 20.1406C12.3308 20.2316 12.4389 20.3037 12.5579 20.3528C12.6769 20.402 12.8044 20.4271 12.9331 20.4268H13.5818V22.4268C13.5818 22.6674 13.6773 22.8981 13.8474 23.0682C14.0175 23.2383 14.2482 23.3338 14.4888 23.3338C14.7293 23.3338 14.96 23.2383 15.1301 23.0682C15.3002 22.8981 15.3958 22.6674 15.3958 22.4268V20.4268H16.6051V22.4268C16.6051 22.6673 16.7006 22.8979 16.8706 23.068C17.0407 23.238 17.2713 23.3335 17.5118 23.3335C17.7522 23.3335 17.9828 23.238 18.1529 23.068C18.3229 22.8979 18.4184 22.6673 18.4184 22.4268V20.4268H19.0678C19.1963 20.4269 19.3236 20.4017 19.4424 20.3525C19.5612 20.3034 19.6691 20.2313 19.76 20.1404C19.8509 20.0495 19.923 19.9416 19.9721 19.8228C20.0213 19.704 20.0465 19.5767 20.0464 19.4482V13.5835H11.9531V19.4475ZM10.7084 13.4275C10.468 13.4279 10.2374 13.5236 10.0675 13.6937C9.89749 13.8638 9.80193 14.0944 9.80176 14.3348V18.1142C9.80176 18.2332 9.82521 18.3511 9.87077 18.4611C9.91634 18.5711 9.98312 18.6711 10.0673 18.7553C10.1515 18.8395 10.2515 18.9063 10.3615 18.9518C10.4715 18.9974 10.5894 19.0208 10.7084 19.0208C10.8275 19.0208 10.9454 18.9974 11.0554 18.9518C11.1654 18.9063 11.2653 18.8395 11.3495 18.7553C11.4337 18.6711 11.5005 18.5711 11.5461 18.4611C11.5916 18.3511 11.6151 18.2332 11.6151 18.1142V14.3348C11.6147 14.0945 11.5191 13.8641 11.3491 13.6941C11.1792 13.5242 10.9488 13.4285 10.7084 13.4282V13.4275ZM21.2898 13.4275C21.0493 13.4279 20.8188 13.5236 20.6488 13.6937C20.4788 13.8638 20.3833 14.0944 20.3831 14.3348V18.1142C20.3831 18.2332 20.4065 18.3511 20.4521 18.4611C20.4977 18.5711 20.5645 18.6711 20.6486 18.7553C20.7328 18.8395 20.8328 18.9063 20.9428 18.9518C21.0528 18.9974 21.1707 19.0208 21.2898 19.0208C21.4088 19.0208 21.5267 18.9974 21.6367 18.9518C21.7467 18.9063 21.8467 18.8395 21.9309 18.7553C22.0151 18.6711 22.0818 18.5711 22.1274 18.4611C22.173 18.3511 22.1964 18.2332 22.1964 18.1142V14.3348C22.1961 14.0945 22.1004 13.8641 21.9305 13.6941C21.7605 13.5242 21.5301 13.4285 21.2898 13.4282V13.4275Z" fill="white"/>
</svg>
