<svg width="16" height="16" viewBox="0 0 16 16" fill="none" xmlns="http://www.w3.org/2000/svg">
<g id="uil:android">
<path id="Vector" d="M9.98333 2.0126L10.6233 0.857937C10.6315 0.843142 10.6367 0.826879 10.6386 0.810077C10.6405 0.793275 10.6391 0.776263 10.6344 0.760013C10.6297 0.743763 10.6219 0.728592 10.6114 0.715368C10.6008 0.702143 10.5878 0.691123 10.573 0.682937C10.5582 0.674752 10.5419 0.66956 10.5251 0.66766C10.5083 0.665759 10.4913 0.667187 10.4751 0.67186C10.4588 0.676534 10.4437 0.684363 10.4304 0.6949C10.4172 0.705437 10.4062 0.718475 10.398 0.733271L9.75133 1.89994C9.19931 1.6579 8.60309 1.53294 8.00033 1.53294C7.39758 1.53294 6.80136 1.6579 6.24933 1.89994L5.60267 0.733271C5.58614 0.703213 5.55834 0.680953 5.5254 0.671389C5.49245 0.661825 5.45706 0.665739 5.427 0.682271C5.39694 0.698803 5.37468 0.726598 5.36512 0.759542C5.35556 0.792486 5.35947 0.82788 5.376 0.857937L6.016 2.0126C5.40706 2.31293 4.89258 2.77514 4.52897 3.34854C4.16536 3.92195 3.96666 4.5844 3.95467 5.26327H12.046C12.0339 4.58426 11.835 3.92171 11.4711 3.34829C11.1073 2.77487 10.5925 2.31275 9.98333 2.0126ZM6.13333 3.7826C6.06646 3.7826 6.00108 3.76276 5.94548 3.72559C5.88988 3.68842 5.84656 3.6356 5.821 3.5738C5.79544 3.512 5.78878 3.444 5.80188 3.37842C5.81497 3.31283 5.84723 3.25261 5.89457 3.20537C5.94191 3.15812 6.00219 3.12598 6.0678 3.11302C6.13341 3.10005 6.2014 3.10684 6.26314 3.13252C6.32489 3.15821 6.37764 3.20164 6.4147 3.25731C6.45176 3.31298 6.47147 3.37839 6.47133 3.44527C6.47116 3.5348 6.43547 3.6206 6.3721 3.68384C6.30873 3.74709 6.22286 3.7826 6.13333 3.7826ZM9.868 3.7826C9.80112 3.7826 9.73575 3.76276 9.68015 3.72559C9.62455 3.68842 9.58123 3.6356 9.55567 3.5738C9.5301 3.512 9.52345 3.444 9.53655 3.37842C9.54964 3.31283 9.5819 3.25261 9.62924 3.20537C9.67657 3.15812 9.73686 3.12598 9.80247 3.11302C9.86808 3.10005 9.93606 3.10684 9.99781 3.13252C10.0596 3.15821 10.1123 3.20164 10.1494 3.25731C10.1864 3.31298 10.2061 3.37839 10.206 3.44527C10.2058 3.5348 10.1701 3.6206 10.1068 3.68384C10.0434 3.74709 9.95753 3.7826 9.868 3.7826ZM3.95334 11.4473C3.95316 11.576 3.97839 11.7035 4.02759 11.8224C4.07678 11.9413 4.14897 12.0494 4.24002 12.1404C4.33106 12.2314 4.43917 12.3035 4.55815 12.3526C4.67712 12.4017 4.80462 12.4269 4.93334 12.4266H5.582V14.4266C5.582 14.6672 5.67756 14.8979 5.84766 15.0679C6.01775 15.238 6.24845 15.3336 6.489 15.3336C6.72955 15.3336 6.96025 15.238 7.13035 15.0679C7.30044 14.8979 7.396 14.6672 7.396 14.4266V12.4266H8.60533V14.4266C8.60533 14.6671 8.70086 14.8977 8.87089 15.0677C9.04092 15.2377 9.27154 15.3333 9.512 15.3333C9.75246 15.3333 9.98308 15.2377 10.1531 15.0677C10.3231 14.8977 10.4187 14.6671 10.4187 14.4266V12.4266H11.068C11.1965 12.4267 11.3238 12.4014 11.4426 12.3523C11.5614 12.3031 11.6693 12.231 11.7602 12.1402C11.8511 12.0493 11.9232 11.9413 11.9724 11.8226C12.0215 11.7038 12.0468 11.5765 12.0467 11.4479V5.58327H3.95334V11.4473ZM2.70867 5.42727C2.4682 5.42762 2.23769 5.52335 2.06771 5.69345C1.89774 5.86355 1.80218 6.09413 1.802 6.3346V10.1139C1.802 10.233 1.82545 10.3509 1.87102 10.4609C1.91658 10.5709 1.98337 10.6709 2.06756 10.755C2.15175 10.8392 2.2517 10.906 2.3617 10.9516C2.4717 10.9972 2.5896 11.0206 2.70867 11.0206C2.82773 11.0206 2.94563 10.9972 3.05563 10.9516C3.16564 10.906 3.26559 10.8392 3.34978 10.755C3.43397 10.6709 3.50075 10.5709 3.54632 10.4609C3.59188 10.3509 3.61533 10.233 3.61533 10.1139V6.3346C3.61498 6.09425 3.51935 5.86384 3.34939 5.69388C3.17943 5.52393 2.94902 5.42829 2.70867 5.42794V5.42727ZM13.29 5.42727C13.0495 5.42762 12.819 5.52335 12.649 5.69345C12.4791 5.86355 12.3835 6.09413 12.3833 6.3346V10.1139C12.3833 10.233 12.4068 10.3509 12.4524 10.4609C12.4979 10.5709 12.5647 10.6709 12.6489 10.755C12.7331 10.8392 12.833 10.906 12.943 10.9516C13.053 10.9972 13.1709 11.0206 13.29 11.0206C13.4091 11.0206 13.527 10.9972 13.637 10.9516C13.747 10.906 13.8469 10.8392 13.9311 10.755C14.0153 10.6709 14.0821 10.5709 14.1277 10.4609C14.1732 10.3509 14.1967 10.233 14.1967 10.1139V6.3346C14.1963 6.09425 14.1007 5.86384 13.9307 5.69388C13.7608 5.52393 13.5304 5.42829 13.29 5.42794V5.42727Z" fill="white"/>
</g>
</svg>
