<svg width="32" height="32" viewBox="0 0 32 32" fill="none" xmlns="http://www.w3.org/2000/svg">
<rect width="32" height="32" rx="16" fill="#011E00"/>
<rect x="0.5" y="0.5" width="31" height="31" rx="15.5" stroke="white" stroke-opacity="0.25"/>
<path d="M19.3671 21.52C18.7138 22.1533 18.0004 22.0533 17.3138 21.7533C16.5871 21.4467 15.9204 21.4333 15.1538 21.7533C14.1938 22.1667 13.6871 22.0467 13.1138 21.52C9.86043 18.1667 10.3404 13.06 14.0338 12.8733C14.9338 12.92 15.5604 13.3667 16.0871 13.4067C16.8738 13.2467 17.6271 12.7867 18.4671 12.8467C19.4738 12.9267 20.2338 13.3267 20.7338 14.0467C18.6538 15.2933 19.1471 18.0333 21.0538 18.8C20.6738 19.8 20.1804 20.7933 19.3604 21.5267L19.3671 21.52ZM16.0204 12.8333C15.9204 11.3467 17.1271 10.12 18.5138 10C18.7071 11.72 16.9538 13 16.0204 12.8333Z" fill="white"/>
</svg>
