<svg width="16" height="16" viewBox="0 0 16 16" fill="none" xmlns="http://www.w3.org/2000/svg">
<g id="ic:baseline-apple">
<path id="Vector" d="M11.3667 13.52C10.7133 14.1533 10 14.0533 9.31334 13.7533C8.58667 13.4467 7.92001 13.4333 7.15334 13.7533C6.19334 14.1667 5.68667 14.0467 5.11334 13.52C1.86001 10.1667 2.34001 5.06 6.03334 4.87333C6.93334 4.92 7.56001 5.36667 8.08667 5.40667C8.87334 5.24667 9.62667 4.78667 10.4667 4.84667C11.4733 4.92667 12.2333 5.32667 12.7333 6.04667C10.6533 7.29333 11.1467 10.0333 13.0533 10.8C12.6733 11.8 12.18 12.7933 11.36 13.5267L11.3667 13.52ZM8.02001 4.83333C7.92001 3.34667 9.12667 2.12 10.5133 2C10.7067 3.72 8.95334 5 8.02001 4.83333Z" fill="white"/>
</g>
</svg>
