<svg width="544" height="88" viewBox="0 0 544 88" fill="none" xmlns="http://www.w3.org/2000/svg">
<mask id="path-1-inside-1_443_327" fill="white">
<path d="M0 0H544V88H0V0Z"/>
</mask>
<path d="M0 1H544V-1H0V1Z" fill="white" fill-opacity="0.25" mask="url(#path-1-inside-1_443_327)"/>
<path d="M7.584 37.816C5.856 37.816 4.632 38.368 3.768 39.256V39.208L4.656 34.768H12.12V32.416H2.568L0.768 41.464H3.576C4.368 40.48 5.544 40.024 6.84 40.024C8.856 40.024 10.176 41.08 10.176 43.336C10.176 45.736 8.736 46.984 6.696 46.984C4.392 46.984 3.408 45.592 3.24 44.104H0.48C0.576 46.96 2.784 49.36 6.84 49.36C10.296 49.36 12.96 47.056 12.96 43.36C12.96 40.12 10.776 37.816 7.584 37.816ZM21.2481 49.36C25.9281 49.36 27.9201 45.424 27.9201 40.72C27.9201 36.016 25.9281 32.056 21.2481 32.056C16.5681 32.056 14.5761 36.016 14.5761 40.72C14.5761 45.424 16.5681 49.36 21.2481 49.36ZM21.2481 46.984C18.3201 46.984 17.3361 44.176 17.3361 40.72C17.3361 37.264 18.3201 34.432 21.2481 34.432C24.1761 34.432 25.1361 37.264 25.1361 40.72C25.1361 44.176 24.1761 46.984 21.2481 46.984ZM33.3887 41.608C36.1727 41.608 37.4207 39.424 37.4207 36.832C37.4207 34.264 36.1727 32.056 33.3887 32.056C30.6527 32.056 29.3567 34.264 29.3567 36.832C29.3567 39.424 30.6527 41.608 33.3887 41.608ZM44.0927 32.416H42.1727L33.4607 49H35.3807L44.0927 32.416ZM33.3887 39.784C32.0687 39.784 31.4927 38.656 31.4927 36.832C31.4927 35.008 32.0687 33.904 33.3887 33.904C34.7087 33.904 35.2847 35.008 35.2847 36.832C35.2847 38.656 34.7087 39.784 33.3887 39.784ZM44.1647 49.36C46.9487 49.36 48.1967 47.152 48.1967 44.584C48.1967 41.992 46.9487 39.808 44.1647 39.808C41.4287 39.808 40.1327 41.992 40.1327 44.584C40.1327 47.152 41.4287 49.36 44.1647 49.36ZM44.1647 47.512C42.8687 47.512 42.2687 46.408 42.2687 44.584C42.2687 42.76 42.8687 41.632 44.1647 41.632C45.4847 41.632 46.0607 42.76 46.0607 44.584C46.0607 46.408 45.4847 47.512 44.1647 47.512ZM57.6403 39.256V34.264H66.7843V31.84H54.7843V49H57.6403V41.704H65.0563V39.256H57.6403ZM74.8738 39.952C74.8738 41.128 73.7218 41.368 71.8258 41.728C68.7538 42.328 66.7618 43.168 66.7618 45.856C66.7618 47.92 68.2978 49.36 70.7938 49.36C72.6898 49.36 74.0818 48.616 74.8498 47.536H74.8978C75.1378 48.736 75.7618 49.216 77.1058 49.216C77.5858 49.216 77.9938 49.168 78.5698 48.952V47.752C77.5858 47.848 77.3938 47.392 77.3938 46.528V40.696C77.3938 37.432 75.3778 36.4 72.6658 36.4C68.9698 36.4 67.4578 38.248 67.3378 40.6H69.7858C69.9058 39.016 70.6498 38.392 72.6658 38.392C74.3458 38.392 74.8738 39.064 74.8738 39.952ZM71.3458 47.368C69.9778 47.368 69.3058 46.744 69.3058 45.616C69.3058 44.368 70.2178 43.768 72.3058 43.312C73.4818 43.072 74.4658 42.784 74.8738 42.496V44.344C74.8738 46.336 73.4338 47.368 71.3458 47.368ZM85.3478 41.584C83.5718 41.176 82.2038 41.08 82.2038 39.832C82.2038 38.968 83.0198 38.392 84.5318 38.392C86.4998 38.392 86.9798 39.376 87.1478 40.336H89.5958C89.4278 38.2 87.8438 36.4 84.5078 36.4C81.4358 36.4 79.6598 38.008 79.6598 40.024C79.6598 42.808 82.2998 43.192 84.2438 43.648C86.0438 44.08 87.5078 44.2 87.5078 45.736C87.5078 46.504 86.7638 47.368 85.0117 47.368C82.4198 47.368 81.8438 46.24 81.7238 44.92H79.2758C79.3958 47.512 81.0998 49.36 85.0598 49.36C88.0358 49.36 90.0518 47.896 90.0518 45.544C90.0518 42.616 87.6038 42.112 85.3478 41.584ZM97.3138 38.8V36.736H95.0098V32.872H92.4658V36.736H90.6898V38.8H92.4658V45.664C92.4658 48.256 93.5698 49.168 95.5858 49.168C96.2578 49.168 96.8098 49.096 97.3138 48.976V46.912C95.6818 47.008 95.0098 46.84 95.0098 45.448V38.8H97.3138ZM104.452 47.296C102.22 47.296 100.9 45.592 100.9 43.528H110.308C110.308 39.16 108.364 36.4 104.404 36.4C100.708 36.4 98.3801 38.896 98.3801 42.88C98.3801 46.72 100.708 49.36 104.524 49.36C107.668 49.36 109.492 47.584 110.116 45.256H107.596C107.38 46 106.54 47.296 104.452 47.296ZM104.404 38.392C106.444 38.392 107.788 39.76 107.788 41.656H100.9C100.9 39.76 102.364 38.392 104.404 38.392ZM117.868 36.448C116.26 36.448 115.252 37.504 114.604 39.04H114.556V36.736H112.036V49H114.556V42.736C114.556 40.12 116.5 38.488 118.924 38.896H118.972V36.52C118.612 36.472 118.3 36.448 117.868 36.448Z" fill="white"/>
<path d="M0.976 72.56V84H8.592V82.384H2.88V72.56H0.976ZM14.7128 77.968C14.7128 78.752 13.9448 78.912 12.6808 79.152C10.6328 79.552 9.30475 80.112 9.30475 81.904C9.30475 83.28 10.3288 84.24 11.9928 84.24C13.2568 84.24 14.1848 83.744 14.6968 83.024H14.7288C14.8888 83.824 15.3048 84.144 16.2008 84.144C16.5208 84.144 16.7928 84.112 17.1768 83.968V83.168C16.5208 83.232 16.3928 82.928 16.3928 82.352V78.464C16.3928 76.288 15.0488 75.6 13.2408 75.6C10.7768 75.6 9.76875 76.832 9.68875 78.4H11.3207C11.4008 77.344 11.8968 76.928 13.2408 76.928C14.3608 76.928 14.7128 77.376 14.7128 77.968ZM12.3608 82.912C11.4488 82.912 11.0008 82.496 11.0008 81.744C11.0008 80.912 11.6088 80.512 13.0008 80.208C13.7848 80.048 14.4408 79.856 14.7128 79.664V80.896C14.7128 82.224 13.7528 82.912 12.3608 82.912ZM23.5354 75.824V80.8C23.5354 82.016 22.7034 82.8 21.4074 82.8C20.2554 82.8 19.7914 82.096 19.7914 80.992V75.824H18.0954V81.472C18.0954 83.344 19.2954 84.224 20.8154 84.224C22.2234 84.224 23.0714 83.584 23.5034 82.944H23.5354V84H25.2154V75.824H23.5354ZM31.2156 75.6C29.8076 75.6 28.9596 76.24 28.5276 76.88H28.4956V75.824H26.8156V84H28.4956V79.024C28.4956 77.808 29.3276 77.024 30.6236 77.024C31.7756 77.024 32.2396 77.728 32.2396 78.832V84H33.9356V78.352C33.9356 76.48 32.7356 75.6 31.2156 75.6ZM41.1039 78.816H42.7839C42.5759 76.96 41.1839 75.6 39.0559 75.6C36.6239 75.6 35.0399 77.36 35.0399 79.92C35.0399 82.48 36.6239 84.24 39.0719 84.24C41.1999 84.24 42.6559 82.848 42.7839 80.96H41.1039C41.0399 81.872 40.5119 82.864 39.0719 82.864C37.4079 82.864 36.7199 81.456 36.7199 79.92C36.7199 78.384 37.4239 76.976 39.0719 76.976C40.5119 76.976 41.0399 77.984 41.1039 78.816ZM48.2618 75.6C46.8858 75.6 46.0378 76.24 45.6058 76.88H45.5738V72.56H43.8938V84H45.5738V79.024C45.5738 77.808 46.4538 77.024 47.6858 77.024C48.8538 77.024 49.3178 77.728 49.3178 78.832V84H51.0138V78.352C51.0138 76.48 49.8138 75.6 48.2618 75.6ZM59.2769 84.24C56.7169 84.24 55.1649 82.464 55.1649 79.92C55.1649 77.376 56.7169 75.6 59.2769 75.6C61.8369 75.6 63.3889 77.376 63.3889 79.92C63.3889 82.464 61.8369 84.24 59.2769 84.24ZM59.2769 82.864C60.8769 82.864 61.7089 81.6 61.7089 79.92C61.7089 78.224 60.8769 76.976 59.2769 76.976C57.6769 76.976 56.8449 78.224 56.8449 79.92C56.8449 81.6 57.6769 82.864 59.2769 82.864ZM68.2498 73.936V72.56C67.9138 72.496 67.5458 72.448 67.1298 72.448C65.7858 72.448 65.0498 73.056 65.0498 74.784V75.824H63.8818V77.2H65.0498V84H66.7458V77.2H68.2498V75.824H66.7458V74.928C66.7458 74 67.1618 73.888 68.2498 73.936ZM76.6494 75.6C75.3694 75.6 74.5694 76.208 74.1374 76.784H74.1054V75.824H72.4094V86.784H74.1054V83.024H74.1374C74.5694 83.632 75.3694 84.24 76.6494 84.24C78.7294 84.24 80.2814 82.608 80.2814 79.92C80.2814 77.232 78.7294 75.6 76.6494 75.6ZM76.3294 82.864C74.9694 82.864 74.1214 81.728 74.1214 79.92C74.1214 78.096 74.9694 76.976 76.3294 76.976C77.8014 76.976 78.5854 78.32 78.5854 79.92C78.5854 81.52 77.8014 82.864 76.3294 82.864ZM85.3911 75.632C84.3191 75.632 83.6471 76.336 83.2151 77.36H83.1831V75.824H81.5031V84H83.1831V79.824C83.1831 78.08 84.4791 76.992 86.0951 77.264H86.1271V75.68C85.8871 75.648 85.6791 75.632 85.3911 75.632ZM90.6206 84.24C88.0606 84.24 86.5086 82.464 86.5086 79.92C86.5086 77.376 88.0606 75.6 90.6206 75.6C93.1806 75.6 94.7326 77.376 94.7326 79.92C94.7326 82.464 93.1806 84.24 90.6206 84.24ZM90.6206 82.864C92.2206 82.864 93.0526 81.6 93.0526 79.92C93.0526 78.224 92.2206 76.976 90.6206 76.976C89.0206 76.976 88.1886 78.224 88.1886 79.92C88.1886 81.6 89.0206 82.864 90.6206 82.864ZM96.7578 74.448C97.2378 74.448 97.7178 74.128 97.7178 73.552C97.7178 72.976 97.2378 72.672 96.7578 72.672C96.2938 72.672 95.8138 72.976 95.8138 73.552C95.8138 74.128 96.2938 74.448 96.7578 74.448ZM95.9258 75.824V84.4C95.9258 85.328 95.6378 85.392 94.5497 85.328V86.608C95.0137 86.72 95.3658 86.784 95.8618 86.784C97.2057 86.784 97.6058 85.888 97.6058 84.384V75.824H95.9258ZM102.932 82.864C101.444 82.864 100.564 81.728 100.564 80.352H106.836C106.836 77.44 105.54 75.6 102.9 75.6C100.436 75.6 98.8836 77.264 98.8836 79.92C98.8836 82.48 100.436 84.24 102.98 84.24C105.076 84.24 106.292 83.056 106.708 81.504H105.028C104.884 82 104.324 82.864 102.932 82.864ZM102.9 76.928C104.26 76.928 105.156 77.84 105.156 79.104H100.564C100.564 77.84 101.54 76.928 102.9 76.928ZM113.62 78.816H115.3C115.092 76.96 113.7 75.6 111.572 75.6C109.14 75.6 107.556 77.36 107.556 79.92C107.556 82.48 109.14 84.24 111.588 84.24C113.716 84.24 115.172 82.848 115.3 80.96H113.62C113.556 81.872 113.028 82.864 111.588 82.864C109.924 82.864 109.236 81.456 109.236 79.92C109.236 78.384 109.94 76.976 111.588 76.976C113.028 76.976 113.556 77.984 113.62 78.816ZM120.313 77.2V75.824H118.777V73.248H117.081V75.824H115.897V77.2H117.081V81.776C117.081 83.504 117.817 84.112 119.161 84.112C119.609 84.112 119.977 84.064 120.313 83.984V82.608C119.225 82.672 118.777 82.56 118.777 81.632V77.2H120.313ZM125.117 79.056C123.933 78.784 123.021 78.72 123.021 77.888C123.021 77.312 123.565 76.928 124.573 76.928C125.885 76.928 126.205 77.584 126.317 78.224H127.949C127.837 76.8 126.781 75.6 124.557 75.6C122.509 75.6 121.325 76.672 121.325 78.016C121.325 79.872 123.085 80.128 124.381 80.432C125.581 80.72 126.557 80.8 126.557 81.824C126.557 82.336 126.061 82.912 124.893 82.912C123.165 82.912 122.781 82.16 122.701 81.28H121.069C121.149 83.008 122.285 84.24 124.925 84.24C126.909 84.24 128.253 83.264 128.253 81.696C128.253 79.744 126.621 79.408 125.117 79.056Z" fill="white" fill-opacity="0.65"/>
<path d="M288.776 32.416C288.608 34.456 287.744 35.944 284.744 35.944V37.936C286.136 37.936 287.24 37.936 288.224 36.976V49H291.008V32.416H288.776ZM300.35 49.36C305.03 49.36 307.022 45.424 307.022 40.72C307.022 36.016 305.03 32.056 300.35 32.056C295.67 32.056 293.678 36.016 293.678 40.72C293.678 45.424 295.67 49.36 300.35 49.36ZM300.35 46.984C297.422 46.984 296.438 44.176 296.438 40.72C296.438 37.264 297.422 34.432 300.35 34.432C303.278 34.432 304.238 37.264 304.238 40.72C304.238 44.176 303.278 46.984 300.35 46.984ZM309.887 49.192C310.751 49.192 311.423 48.592 311.423 47.632C311.423 46.696 310.751 46.072 309.887 46.072C308.999 46.072 308.327 46.696 308.327 47.632C308.327 48.592 308.999 49.192 309.887 49.192ZM319.451 49.36C324.131 49.36 326.123 45.424 326.123 40.72C326.123 36.016 324.131 32.056 319.451 32.056C314.771 32.056 312.779 36.016 312.779 40.72C312.779 45.424 314.771 49.36 319.451 49.36ZM319.451 46.984C316.523 46.984 315.539 44.176 315.539 40.72C315.539 37.264 316.523 34.432 319.451 34.432C322.379 34.432 323.339 37.264 323.339 40.72C323.339 44.176 322.379 46.984 319.451 46.984ZM334.592 49.36C339.272 49.36 341.264 45.424 341.264 40.72C341.264 36.016 339.272 32.056 334.592 32.056C329.912 32.056 327.92 36.016 327.92 40.72C327.92 45.424 329.912 49.36 334.592 49.36ZM334.592 46.984C331.664 46.984 330.68 44.176 330.68 40.72C330.68 37.264 331.664 34.432 334.592 34.432C337.52 34.432 338.48 37.264 338.48 40.72C338.48 44.176 337.52 46.984 334.592 46.984ZM349.732 49.36C354.412 49.36 356.404 45.424 356.404 40.72C356.404 36.016 354.412 32.056 349.732 32.056C345.052 32.056 343.06 36.016 343.06 40.72C343.06 45.424 345.052 49.36 349.732 49.36ZM349.732 46.984C346.804 46.984 345.82 44.176 345.82 40.72C345.82 37.264 346.804 34.432 349.732 34.432C352.66 34.432 353.62 37.264 353.62 40.72C353.62 44.176 352.66 46.984 349.732 46.984Z" fill="white"/>
<path d="M284.976 84H286.88V79.424H289.84C292.032 79.424 293.616 78.384 293.616 75.984C293.616 73.584 292.032 72.56 289.84 72.56H284.976V84ZM286.88 74.176H289.76C291.04 74.176 291.712 74.736 291.712 75.984C291.712 77.248 291.04 77.792 289.76 77.792H286.88V74.176ZM298.594 75.632C297.522 75.632 296.85 76.336 296.418 77.36H296.386V75.824H294.706V84H296.386V79.824C296.386 78.08 297.682 76.992 299.298 77.264H299.33V75.68C299.09 75.648 298.882 75.632 298.594 75.632ZM303.824 84.24C301.264 84.24 299.712 82.464 299.712 79.92C299.712 77.376 301.264 75.6 303.824 75.6C306.384 75.6 307.936 77.376 307.936 79.92C307.936 82.464 306.384 84.24 303.824 84.24ZM303.824 82.864C305.424 82.864 306.256 81.6 306.256 79.92C306.256 78.224 305.424 76.976 303.824 76.976C302.224 76.976 301.392 78.224 301.392 79.92C301.392 81.6 302.224 82.864 303.824 82.864ZM309.961 74.448C310.441 74.448 310.921 74.128 310.921 73.552C310.921 72.976 310.441 72.672 309.961 72.672C309.497 72.672 309.017 72.976 309.017 73.552C309.017 74.128 309.497 74.448 309.961 74.448ZM309.129 75.824V84.4C309.129 85.328 308.841 85.392 307.753 85.328V86.608C308.217 86.72 308.569 86.784 309.065 86.784C310.409 86.784 310.809 85.888 310.809 84.384V75.824H309.129ZM316.135 82.864C314.647 82.864 313.767 81.728 313.767 80.352H320.039C320.039 77.44 318.743 75.6 316.103 75.6C313.639 75.6 312.087 77.264 312.087 79.92C312.087 82.48 313.639 84.24 316.183 84.24C318.279 84.24 319.495 83.056 319.911 81.504H318.231C318.087 82 317.527 82.864 316.135 82.864ZM316.103 76.928C317.463 76.928 318.359 77.84 318.359 79.104H313.767C313.767 77.84 314.743 76.928 316.103 76.928ZM326.823 78.816H328.503C328.295 76.96 326.903 75.6 324.775 75.6C322.343 75.6 320.759 77.36 320.759 79.92C320.759 82.48 322.343 84.24 324.791 84.24C326.919 84.24 328.375 82.848 328.503 80.96H326.823C326.759 81.872 326.231 82.864 324.791 82.864C323.127 82.864 322.439 81.456 322.439 79.92C322.439 78.384 323.143 76.976 324.791 76.976C326.231 76.976 326.759 77.984 326.823 78.816ZM333.516 77.2V75.824H331.981V73.248H330.285V75.824H329.101V77.2H330.285V81.776C330.285 83.504 331.021 84.112 332.365 84.112C332.812 84.112 333.181 84.064 333.516 83.984V82.608C332.429 82.672 331.981 82.56 331.981 81.632V77.2H333.516ZM338.32 79.056C337.136 78.784 336.224 78.72 336.224 77.888C336.224 77.312 336.768 76.928 337.776 76.928C339.088 76.928 339.408 77.584 339.52 78.224H341.152C341.04 76.8 339.984 75.6 337.76 75.6C335.712 75.6 334.528 76.672 334.528 78.016C334.528 79.872 336.288 80.128 337.584 80.432C338.784 80.72 339.76 80.8 339.76 81.824C339.76 82.336 339.264 82.912 338.096 82.912C336.368 82.912 335.984 82.16 335.904 81.28H334.272C334.352 83.008 335.488 84.24 338.128 84.24C340.112 84.24 341.456 83.264 341.456 81.696C341.456 79.744 339.824 79.408 338.32 79.056ZM351.26 78.816H352.94C352.732 76.96 351.34 75.6 349.212 75.6C346.78 75.6 345.196 77.36 345.196 79.92C345.196 82.48 346.78 84.24 349.228 84.24C351.356 84.24 352.812 82.848 352.94 80.96H351.26C351.196 81.872 350.668 82.864 349.228 82.864C347.564 82.864 346.876 81.456 346.876 79.92C346.876 78.384 347.58 76.976 349.228 76.976C350.668 76.976 351.196 77.984 351.26 78.816ZM357.73 84.24C355.17 84.24 353.618 82.464 353.618 79.92C353.618 77.376 355.17 75.6 357.73 75.6C360.29 75.6 361.842 77.376 361.842 79.92C361.842 82.464 360.29 84.24 357.73 84.24ZM357.73 82.864C359.33 82.864 360.162 81.6 360.162 79.92C360.162 78.224 359.33 76.976 357.73 76.976C356.13 76.976 355.298 78.224 355.298 79.92C355.298 81.6 356.13 82.864 357.73 82.864ZM372.027 75.6C370.763 75.6 369.963 76.224 369.355 77.008H369.323C368.987 76.128 368.299 75.6 367.147 75.6C365.915 75.6 365.147 76.24 364.715 76.88H364.683V75.824H363.003V84H364.683V79.024C364.683 77.808 365.403 77.024 366.523 77.024C367.691 77.024 367.915 77.728 367.915 78.832V84H369.611V79.024C369.611 77.808 370.315 77.024 371.451 77.024C372.603 77.024 372.827 77.728 372.827 78.832V84H374.523V78.352C374.523 76.592 373.675 75.6 372.027 75.6ZM380.321 75.6C379.041 75.6 378.241 76.208 377.809 76.784H377.777V75.824H376.081V86.784H377.777V83.024H377.809C378.241 83.632 379.041 84.24 380.321 84.24C382.401 84.24 383.953 82.608 383.953 79.92C383.953 77.232 382.401 75.6 380.321 75.6ZM380.001 82.864C378.641 82.864 377.793 81.728 377.793 79.92C377.793 78.096 378.641 76.976 380.001 76.976C381.473 76.976 382.257 78.32 382.257 79.92C382.257 81.52 381.473 82.864 380.001 82.864ZM385.207 72.56V84H386.903V72.56H385.207ZM392.15 82.864C390.662 82.864 389.782 81.728 389.782 80.352H396.054C396.054 77.44 394.758 75.6 392.118 75.6C389.654 75.6 388.102 77.264 388.102 79.92C388.102 82.48 389.654 84.24 392.198 84.24C394.294 84.24 395.51 83.056 395.926 81.504H394.246C394.102 82 393.542 82.864 392.15 82.864ZM392.118 76.928C393.478 76.928 394.374 77.84 394.374 79.104H389.782C389.782 77.84 390.758 76.928 392.118 76.928ZM400.954 77.2V75.824H399.418V73.248H397.722V75.824H396.538V77.2H397.722V81.776C397.722 83.504 398.458 84.112 399.802 84.112C400.25 84.112 400.618 84.064 400.954 83.984V82.608C399.866 82.672 399.418 82.56 399.418 81.632V77.2H400.954ZM405.713 82.864C404.225 82.864 403.345 81.728 403.345 80.352H409.617C409.617 77.44 408.321 75.6 405.681 75.6C403.217 75.6 401.665 77.264 401.665 79.92C401.665 82.48 403.217 84.24 405.761 84.24C407.857 84.24 409.073 83.056 409.489 81.504H407.809C407.665 82 407.105 82.864 405.713 82.864ZM405.681 76.928C407.041 76.928 407.937 77.84 407.937 79.104H403.345C403.345 77.84 404.321 76.928 405.681 76.928ZM416.513 72.56V76.816H416.481C416.049 76.192 415.249 75.6 413.985 75.6C411.889 75.6 410.337 77.232 410.337 79.92C410.337 82.608 411.889 84.24 413.985 84.24C415.249 84.24 416.049 83.616 416.481 83.056H416.513V84H418.193V72.56H416.513ZM414.273 82.864C412.801 82.864 412.017 81.52 412.017 79.92C412.017 78.32 412.801 76.976 414.273 76.976C415.649 76.976 416.497 78.096 416.497 79.92C416.497 81.728 415.649 82.864 414.273 82.864Z" fill="white" fill-opacity="0.65"/>
</svg>
