<svg width="544" height="108" viewBox="0 0 544 108" fill="none" xmlns="http://www.w3.org/2000/svg">
<mask id="path-1-inside-1_443_312" fill="white">
<path d="M0 0H544V108H0V0Z"/>
</mask>
<path d="M0 1H544V-1H0V1Z" fill="white" fill-opacity="0.25" mask="url(#path-1-inside-1_443_312)"/>
<path d="M4.32 38.92V34.264H13.872V31.84H1.464V49H14.112V46.576H4.32V41.368H12.696V38.92H4.32ZM29.7126 36.4C27.8166 36.4 26.6166 37.336 25.7046 38.512H25.6566C25.1526 37.192 24.1206 36.4 22.3926 36.4C20.5446 36.4 19.3926 37.36 18.7446 38.32H18.6966V36.736H16.1766V49H18.6966V41.536C18.6966 39.712 19.7766 38.536 21.4566 38.536C23.2086 38.536 23.5446 39.592 23.5446 41.248V49H26.0886V41.536C26.0886 39.712 27.1446 38.536 28.8486 38.536C30.5766 38.536 30.9126 39.592 30.9126 41.248V49H33.4566V40.528C33.4566 37.888 32.1846 36.4 29.7126 36.4ZM49.3298 36.4C47.4338 36.4 46.2338 37.336 45.3218 38.512H45.2738C44.7698 37.192 43.7378 36.4 42.0098 36.4C40.1618 36.4 39.0098 37.36 38.3618 38.32H38.3138V36.736H35.7938V49H38.3138V41.536C38.3138 39.712 39.3938 38.536 41.0738 38.536C42.8258 38.536 43.1618 39.592 43.1618 41.248V49H45.7058V41.536C45.7058 39.712 46.7618 38.536 48.4658 38.536C50.1938 38.536 50.5298 39.592 50.5298 41.248V49H53.0738V40.528C53.0738 37.888 51.8018 36.4 49.3298 36.4ZM66.0006 36.736H63.3126L60.1686 46.12H60.1206L56.6886 36.736H53.9766L58.4166 47.752C58.8726 48.904 58.5366 49.864 58.0806 50.416C57.5286 51.088 56.7366 51.16 55.6806 51.016H55.4646V52.936C55.9446 53.056 56.5446 53.176 57.2646 53.176C59.6166 53.176 60.4086 51.664 61.1046 49.768L66.0006 36.736ZM70.8338 31.84L75.1058 49H78.1298L81.6338 35.56H81.6818L85.2098 49H88.2098L92.5058 31.84H89.5778L86.6498 45.136H86.6018L83.1218 31.84H80.1938L76.7378 45.136H76.6898L73.7617 31.84H70.8338ZM95.3348 34.672C96.0788 34.672 96.7748 34.192 96.7748 33.328C96.7748 32.464 96.0788 32.008 95.3348 32.008C94.6388 32.008 93.9188 32.464 93.9188 33.328C93.9188 34.192 94.6388 34.672 95.3348 34.672ZM94.0868 36.736V49H96.6068V36.736H94.0868ZM105.769 36.4C103.657 36.4 102.385 37.36 101.737 38.32H101.689V36.736H99.1688V49H101.689V41.536C101.689 39.712 102.937 38.536 104.881 38.536C106.609 38.536 107.305 39.592 107.305 41.248V49H109.849V40.528C109.849 37.72 108.049 36.4 105.769 36.4ZM118.753 36.4C116.641 36.4 115.369 37.36 114.721 38.32H114.673V36.736H112.153V49H114.673V41.536C114.673 39.712 115.921 38.536 117.865 38.536C119.593 38.536 120.289 39.592 120.289 41.248V49H122.833V40.528C122.833 37.72 121.033 36.4 118.753 36.4ZM126.554 34.672C127.298 34.672 127.994 34.192 127.994 33.328C127.994 32.464 127.298 32.008 126.554 32.008C125.858 32.008 125.138 32.464 125.138 33.328C125.138 34.192 125.858 34.672 126.554 34.672ZM125.306 36.736V49H127.826V36.736H125.306ZM136.988 36.4C134.876 36.4 133.604 37.36 132.956 38.32H132.908V36.736H130.388V49H132.908V41.536C132.908 39.712 134.156 38.536 136.1 38.536C137.828 38.536 138.524 39.592 138.524 41.248V49H141.068V40.528C141.068 37.72 139.268 36.4 136.988 36.4ZM151.868 36.736V38.176H151.82C151.172 37.312 150.044 36.4 148.1 36.4C145.028 36.4 142.724 38.512 142.724 42.4C142.724 46.264 145.028 48.4 148.1 48.4C150.044 48.4 151.172 47.488 151.82 46.576H151.868V48.064C151.868 50.272 150.788 51.232 148.676 51.232C146.684 51.232 145.82 50.416 145.58 49.336H143.036C143.3 51.4 145.244 53.248 148.772 53.248C152.252 53.248 154.388 51.688 154.388 48.16V36.736H151.868ZM148.58 46.336C146.372 46.336 145.244 44.656 145.244 42.4C145.244 40.12 146.372 38.464 148.58 38.464C150.62 38.464 151.844 39.808 151.844 42.4C151.844 44.992 150.62 46.336 148.58 46.336Z" fill="white"/>
<path d="M2.88 77.504V74.176H8.976V72.56H0.976V84H2.88V79.136H7.824V77.504H2.88ZM14.369 77.968C14.369 78.752 13.601 78.912 12.337 79.152C10.289 79.552 8.961 80.112 8.961 81.904C8.961 83.28 9.985 84.24 11.649 84.24C12.913 84.24 13.841 83.744 14.353 83.024H14.385C14.545 83.824 14.961 84.144 15.857 84.144C16.177 84.144 16.449 84.112 16.833 83.968V83.168C16.177 83.232 16.049 82.928 16.049 82.352V78.464C16.049 76.288 14.705 75.6 12.897 75.6C10.433 75.6 9.425 76.832 9.345 78.4H10.977C11.057 77.344 11.553 76.928 12.897 76.928C14.017 76.928 14.369 77.376 14.369 77.968ZM12.017 82.912C11.105 82.912 10.657 82.496 10.657 81.744C10.657 80.912 11.265 80.512 12.657 80.208C13.441 80.048 14.097 79.856 14.369 79.664V80.896C14.369 82.224 13.409 82.912 12.017 82.912ZM23.4476 78.816H25.1276C24.9196 76.96 23.5276 75.6 21.3996 75.6C18.9676 75.6 17.3836 77.36 17.3836 79.92C17.3836 82.48 18.9676 84.24 21.4156 84.24C23.5436 84.24 24.9996 82.848 25.1276 80.96H23.4476C23.3836 81.872 22.8556 82.864 21.4156 82.864C19.7516 82.864 19.0636 81.456 19.0636 79.92C19.0636 78.384 19.7676 76.976 21.4156 76.976C22.8556 76.976 23.3836 77.984 23.4476 78.816ZM29.8535 82.864C28.3655 82.864 27.4855 81.728 27.4855 80.352H33.7575C33.7575 77.44 32.4615 75.6 29.8215 75.6C27.3575 75.6 25.8055 77.264 25.8055 79.92C25.8055 82.48 27.3575 84.24 29.9015 84.24C31.9975 84.24 33.2135 83.056 33.6295 81.504H31.9495C31.8055 82 31.2455 82.864 29.8535 82.864ZM29.8215 76.928C31.1815 76.928 32.0775 77.84 32.0775 79.104H27.4855C27.4855 77.84 28.4615 76.928 29.8215 76.928ZM39.1174 75.6C37.8534 75.6 37.0534 76.192 36.6214 76.816H36.5894V72.56H34.9094V84H36.5894V83.056H36.6214C37.0534 83.616 37.8534 84.24 39.1174 84.24C41.2134 84.24 42.7654 82.608 42.7654 79.92C42.7654 77.232 41.2134 75.6 39.1174 75.6ZM38.8294 82.864C37.4534 82.864 36.6054 81.728 36.6054 79.92C36.6054 78.096 37.4534 76.976 38.8294 76.976C40.3014 76.976 41.0854 78.32 41.0854 79.92C41.0854 81.52 40.3014 82.864 38.8294 82.864ZM47.6206 84.24C45.0606 84.24 43.5086 82.464 43.5086 79.92C43.5086 77.376 45.0606 75.6 47.6206 75.6C50.1806 75.6 51.7326 77.376 51.7326 79.92C51.7326 82.464 50.1806 84.24 47.6206 84.24ZM47.6206 82.864C49.2206 82.864 50.0526 81.6 50.0526 79.92C50.0526 78.224 49.2206 76.976 47.6206 76.976C46.0206 76.976 45.1886 78.224 45.1886 79.92C45.1886 81.6 46.0206 82.864 47.6206 82.864ZM56.5738 84.24C54.0138 84.24 52.4618 82.464 52.4618 79.92C52.4618 77.376 54.0138 75.6 56.5738 75.6C59.1338 75.6 60.6858 77.376 60.6858 79.92C60.6858 82.464 59.1338 84.24 56.5738 84.24ZM56.5738 82.864C58.1738 82.864 59.0058 81.6 59.0058 79.92C59.0058 78.224 58.1738 76.976 56.5738 76.976C54.9738 76.976 54.1418 78.224 54.1418 79.92C54.1418 81.6 54.9738 82.864 56.5738 82.864ZM61.8469 72.56V84H63.5269V81.04L64.6629 79.968L67.2389 84H69.2549L65.8149 78.864L68.9189 75.824H66.8549L63.5269 79.104V72.56H61.8469ZM72.4413 72.56L75.2893 84H77.3053L79.6413 75.04H79.6733L82.0253 84H84.0253L86.8893 72.56H84.9373L82.9853 81.424H82.9533L80.6333 72.56H78.6813L76.3773 81.424H76.3453L74.3932 72.56H72.4413ZM91.8534 77.968C91.8534 78.752 91.0854 78.912 89.8214 79.152C87.7734 79.552 86.4454 80.112 86.4454 81.904C86.4454 83.28 87.4694 84.24 89.1334 84.24C90.3974 84.24 91.3254 83.744 91.8374 83.024H91.8694C92.0294 83.824 92.4454 84.144 93.3414 84.144C93.6614 84.144 93.9334 84.112 94.3174 83.968V83.168C93.6614 83.232 93.5334 82.928 93.5334 82.352V78.464C93.5334 76.288 92.1894 75.6 90.3814 75.6C87.9174 75.6 86.9094 76.832 86.8294 78.4H88.4614C88.5414 77.344 89.0374 76.928 90.3814 76.928C91.5014 76.928 91.8534 77.376 91.8534 77.968ZM89.5014 82.912C88.5894 82.912 88.1414 82.496 88.1414 81.744C88.1414 80.912 88.7494 80.512 90.1414 80.208C90.9254 80.048 91.5814 79.856 91.8534 79.664V80.896C91.8534 82.224 90.8934 82.912 89.5014 82.912ZM99.0477 77.2V75.824H97.5118V73.248H95.8158V75.824H94.6318V77.2H95.8158V81.776C95.8158 83.504 96.5518 84.112 97.8958 84.112C98.3438 84.112 98.7118 84.064 99.0477 83.984V82.608C97.9598 82.672 97.5118 82.56 97.5118 81.632V77.2H99.0477ZM105.823 78.816H107.503C107.295 76.96 105.903 75.6 103.775 75.6C101.343 75.6 99.7586 77.36 99.7586 79.92C99.7586 82.48 101.343 84.24 103.791 84.24C105.919 84.24 107.375 82.848 107.503 80.96H105.823C105.759 81.872 105.231 82.864 103.791 82.864C102.127 82.864 101.439 81.456 101.439 79.92C101.439 78.384 102.143 76.976 103.791 76.976C105.231 76.976 105.759 77.984 105.823 78.816ZM112.981 75.6C111.605 75.6 110.757 76.24 110.325 76.88H110.293V72.56H108.613V84H110.293V79.024C110.293 77.808 111.173 77.024 112.405 77.024C113.573 77.024 114.037 77.728 114.037 78.832V84H115.733V78.352C115.733 76.48 114.533 75.6 112.981 75.6ZM120.492 84H122.396V79.424H125.356C127.548 79.424 129.132 78.384 129.132 75.984C129.132 73.584 127.548 72.56 125.356 72.56H120.492V84ZM122.396 74.176H125.276C126.556 74.176 127.228 74.736 127.228 75.984C127.228 77.248 126.556 77.792 125.276 77.792H122.396V74.176ZM134.11 75.632C133.038 75.632 132.366 76.336 131.934 77.36H131.902V75.824H130.222V84H131.902V79.824C131.902 78.08 133.198 76.992 134.814 77.264H134.846V75.68C134.606 75.648 134.398 75.632 134.11 75.632ZM139.339 84.24C136.779 84.24 135.227 82.464 135.227 79.92C135.227 77.376 136.779 75.6 139.339 75.6C141.899 75.6 143.451 77.376 143.451 79.92C143.451 82.464 141.899 84.24 139.339 84.24ZM139.339 82.864C140.939 82.864 141.771 81.6 141.771 79.92C141.771 78.224 140.939 76.976 139.339 76.976C137.739 76.976 136.907 78.224 136.907 79.92C136.907 81.6 137.739 82.864 139.339 82.864ZM150.277 75.824V76.784H150.245C149.813 76.208 149.061 75.6 147.765 75.6C145.717 75.6 144.181 77.008 144.181 79.6C144.181 82.176 145.717 83.6 147.765 83.6C149.061 83.6 149.813 82.992 150.245 82.384H150.277V83.376C150.277 84.848 149.557 85.488 148.149 85.488C146.821 85.488 146.245 84.944 146.085 84.224H144.389C144.565 85.6 145.861 86.832 148.213 86.832C150.533 86.832 151.957 85.792 151.957 83.44V75.824H150.277ZM148.085 82.224C146.613 82.224 145.861 81.104 145.861 79.6C145.861 78.08 146.613 76.976 148.085 76.976C149.445 76.976 150.261 77.872 150.261 79.6C150.261 81.328 149.445 82.224 148.085 82.224ZM157.438 75.632C156.366 75.632 155.694 76.336 155.262 77.36H155.23V75.824H153.55V84H155.23V79.824C155.23 78.08 156.526 76.992 158.142 77.264H158.174V75.68C157.934 75.648 157.726 75.632 157.438 75.632ZM163.916 77.968C163.916 78.752 163.148 78.912 161.884 79.152C159.836 79.552 158.508 80.112 158.508 81.904C158.508 83.28 159.532 84.24 161.196 84.24C162.46 84.24 163.388 83.744 163.9 83.024H163.932C164.092 83.824 164.508 84.144 165.404 84.144C165.724 84.144 165.996 84.112 166.38 83.968V83.168C165.724 83.232 165.596 82.928 165.596 82.352V78.464C165.596 76.288 164.252 75.6 162.444 75.6C159.98 75.6 158.972 76.832 158.892 78.4H160.524C160.604 77.344 161.1 76.928 162.444 76.928C163.564 76.928 163.916 77.376 163.916 77.968ZM161.564 82.912C160.652 82.912 160.204 82.496 160.204 81.744C160.204 80.912 160.812 80.512 162.204 80.208C162.988 80.048 163.644 79.856 163.916 79.664V80.896C163.916 82.224 162.956 82.912 161.564 82.912ZM176.387 75.6C175.123 75.6 174.323 76.224 173.715 77.008H173.683C173.347 76.128 172.659 75.6 171.507 75.6C170.275 75.6 169.507 76.24 169.075 76.88H169.043V75.824H167.363V84H169.043V79.024C169.043 77.808 169.763 77.024 170.883 77.024C172.051 77.024 172.275 77.728 172.275 78.832V84H173.971V79.024C173.971 77.808 174.675 77.024 175.811 77.024C176.963 77.024 177.187 77.728 177.187 78.832V84H178.883V78.352C178.883 76.592 178.035 75.6 176.387 75.6Z" fill="white" fill-opacity="0.65"/>
<path d="M285.464 49H288.248V35.992H288.296L292.832 49H295.112L299.648 35.992H299.696V49H302.48V31.84H298.784L294.008 45.04H293.96L289.16 31.84H285.464V49ZM306.561 34.672C307.305 34.672 308.001 34.192 308.001 33.328C308.001 32.464 307.305 32.008 306.561 32.008C305.865 32.008 305.145 32.464 305.145 33.328C305.145 34.192 305.865 34.672 306.561 34.672ZM305.313 36.736V49H307.833V36.736H305.313ZM310.256 31.84V49H312.8V31.84H310.256ZM315.107 31.84V49H317.651V31.84H315.107ZM321.327 34.672C322.071 34.672 322.767 34.192 322.767 33.328C322.767 32.464 322.071 32.008 321.327 32.008C320.631 32.008 319.911 32.464 319.911 33.328C319.911 34.192 320.631 34.672 321.327 34.672ZM320.079 36.736V49H322.599V36.736H320.079ZM330.681 49.36C326.841 49.36 324.513 46.696 324.513 42.88C324.513 39.064 326.841 36.4 330.681 36.4C334.521 36.4 336.849 39.064 336.849 42.88C336.849 46.696 334.521 49.36 330.681 49.36ZM330.681 47.296C333.081 47.296 334.329 45.4 334.329 42.88C334.329 40.336 333.081 38.464 330.681 38.464C328.281 38.464 327.033 40.336 327.033 42.88C327.033 45.4 328.281 47.296 330.681 47.296ZM345.191 36.4C343.079 36.4 341.807 37.36 341.159 38.32H341.111V36.736H338.591V49H341.111V41.536C341.111 39.712 342.359 38.536 344.303 38.536C346.031 38.536 346.727 39.592 346.727 41.248V49H349.271V40.528C349.271 37.72 347.471 36.4 345.191 36.4ZM356.879 41.584C355.103 41.176 353.735 41.08 353.735 39.832C353.735 38.968 354.551 38.392 356.063 38.392C358.031 38.392 358.511 39.376 358.679 40.336H361.127C360.959 38.2 359.375 36.4 356.039 36.4C352.967 36.4 351.191 38.008 351.191 40.024C351.191 42.808 353.831 43.192 355.775 43.648C357.575 44.08 359.039 44.2 359.039 45.736C359.039 46.504 358.295 47.368 356.543 47.368C353.951 47.368 353.375 46.24 353.255 44.92H350.807C350.927 47.512 352.631 49.36 356.591 49.36C359.567 49.36 361.583 47.896 361.583 45.544C361.583 42.616 359.135 42.112 356.879 41.584Z" fill="white"/>
<path d="M290.16 84.24C293.6 84.24 295.776 81.712 295.776 78.272C295.776 74.832 293.6 72.32 290.16 72.32C286.704 72.32 284.544 74.832 284.544 78.272C284.544 81.712 286.704 84.24 290.16 84.24ZM290.16 82.608C287.536 82.608 286.432 80.592 286.432 78.272C286.432 75.968 287.536 73.952 290.16 73.952C292.784 73.952 293.872 75.968 293.872 78.272C293.872 80.592 292.784 82.608 290.16 82.608ZM300.969 73.936V72.56C300.633 72.496 300.265 72.448 299.849 72.448C298.505 72.448 297.769 73.056 297.769 74.784V75.824H296.601V77.2H297.769V84H299.465V77.2H300.969V75.824H299.465V74.928C299.465 74 299.881 73.888 300.969 73.936ZM306.072 74.448C306.568 74.448 307.032 74.128 307.032 73.552C307.032 72.976 306.568 72.672 306.072 72.672C305.608 72.672 305.128 72.976 305.128 73.552C305.128 74.128 305.608 74.448 306.072 74.448ZM305.24 75.824V84H306.92V75.824H305.24ZM317.652 75.6C316.388 75.6 315.588 76.224 314.98 77.008H314.948C314.612 76.128 313.924 75.6 312.772 75.6C311.54 75.6 310.772 76.24 310.34 76.88H310.308V75.824H308.628V84H310.308V79.024C310.308 77.808 311.028 77.024 312.148 77.024C313.316 77.024 313.54 77.728 313.54 78.832V84H315.236V79.024C315.236 77.808 315.94 77.024 317.076 77.024C318.228 77.024 318.452 77.728 318.452 78.832V84H320.148V78.352C320.148 76.592 319.3 75.6 317.652 75.6ZM325.946 75.6C324.666 75.6 323.866 76.208 323.434 76.784H323.402V75.824H321.706V86.784H323.402V83.024H323.434C323.866 83.632 324.666 84.24 325.946 84.24C328.026 84.24 329.578 82.608 329.578 79.92C329.578 77.232 328.026 75.6 325.946 75.6ZM325.626 82.864C324.266 82.864 323.418 81.728 323.418 79.92C323.418 78.096 324.266 76.976 325.626 76.976C327.098 76.976 327.882 78.32 327.882 79.92C327.882 81.52 327.098 82.864 325.626 82.864ZM334.688 75.632C333.616 75.632 332.944 76.336 332.512 77.36H332.48V75.824H330.8V84H332.48V79.824C332.48 78.08 333.776 76.992 335.392 77.264H335.424V75.68C335.184 75.648 334.976 75.632 334.688 75.632ZM339.854 82.864C338.366 82.864 337.486 81.728 337.486 80.352H343.758C343.758 77.44 342.462 75.6 339.822 75.6C337.358 75.6 335.806 77.264 335.806 79.92C335.806 82.48 337.358 84.24 339.902 84.24C341.998 84.24 343.214 83.056 343.63 81.504H341.95C341.806 82 341.246 82.864 339.854 82.864ZM339.822 76.928C341.182 76.928 342.078 77.84 342.078 79.104H337.486C337.486 77.84 338.462 76.928 339.822 76.928ZM348.445 79.056C347.261 78.784 346.349 78.72 346.349 77.888C346.349 77.312 346.893 76.928 347.901 76.928C349.213 76.928 349.533 77.584 349.645 78.224H351.277C351.165 76.8 350.109 75.6 347.885 75.6C345.837 75.6 344.653 76.672 344.653 78.016C344.653 79.872 346.413 80.128 347.709 80.432C348.909 80.72 349.885 80.8 349.885 81.824C349.885 82.336 349.389 82.912 348.221 82.912C346.493 82.912 346.109 82.16 346.029 81.28H344.397C344.477 83.008 345.613 84.24 348.253 84.24C350.237 84.24 351.581 83.264 351.581 81.696C351.581 79.744 349.949 79.408 348.445 79.056ZM356.274 79.056C355.09 78.784 354.178 78.72 354.178 77.888C354.178 77.312 354.722 76.928 355.73 76.928C357.042 76.928 357.362 77.584 357.474 78.224H359.106C358.994 76.8 357.938 75.6 355.714 75.6C353.666 75.6 352.482 76.672 352.482 78.016C352.482 79.872 354.242 80.128 355.538 80.432C356.738 80.72 357.714 80.8 357.714 81.824C357.714 82.336 357.218 82.912 356.049 82.912C354.322 82.912 353.938 82.16 353.858 81.28H352.226C352.306 83.008 353.442 84.24 356.082 84.24C358.066 84.24 359.41 83.264 359.41 81.696C359.41 79.744 357.778 79.408 356.274 79.056ZM361.478 74.448C361.974 74.448 362.438 74.128 362.438 73.552C362.438 72.976 361.974 72.672 361.478 72.672C361.014 72.672 360.534 72.976 360.534 73.552C360.534 74.128 361.014 74.448 361.478 74.448ZM360.646 75.824V84H362.326V75.824H360.646ZM367.714 84.24C365.154 84.24 363.602 82.464 363.602 79.92C363.602 77.376 365.154 75.6 367.714 75.6C370.274 75.6 371.826 77.376 371.826 79.92C371.826 82.464 370.274 84.24 367.714 84.24ZM367.714 82.864C369.314 82.864 370.146 81.6 370.146 79.92C370.146 78.224 369.314 76.976 367.714 76.976C366.114 76.976 365.282 78.224 365.282 79.92C365.282 81.6 366.114 82.864 367.714 82.864ZM377.388 75.6C375.98 75.6 375.132 76.24 374.7 76.88H374.668V75.824H372.988V84H374.668V79.024C374.668 77.808 375.5 77.024 376.796 77.024C377.948 77.024 378.412 77.728 378.412 78.832V84H380.108V78.352C380.108 76.48 378.908 75.6 377.388 75.6ZM385.18 79.056C383.996 78.784 383.084 78.72 383.084 77.888C383.084 77.312 383.628 76.928 384.636 76.928C385.948 76.928 386.268 77.584 386.38 78.224H388.012C387.9 76.8 386.844 75.6 384.62 75.6C382.572 75.6 381.388 76.672 381.388 78.016C381.388 79.872 383.148 80.128 384.444 80.432C385.644 80.72 386.62 80.8 386.62 81.824C386.62 82.336 386.124 82.912 384.956 82.912C383.228 82.912 382.844 82.16 382.764 81.28H381.132C381.212 83.008 382.348 84.24 384.988 84.24C386.972 84.24 388.316 83.264 388.316 81.696C388.316 79.744 386.684 79.408 385.18 79.056ZM398.152 75.824V76.784H398.12C397.688 76.208 396.936 75.6 395.64 75.6C393.592 75.6 392.056 77.008 392.056 79.6C392.056 82.176 393.592 83.6 395.64 83.6C396.936 83.6 397.688 82.992 398.12 82.384H398.152V83.376C398.152 84.848 397.432 85.488 396.024 85.488C394.696 85.488 394.12 84.944 393.96 84.224H392.264C392.44 85.6 393.736 86.832 396.088 86.832C398.408 86.832 399.832 85.792 399.832 83.44V75.824H398.152ZM395.96 82.224C394.488 82.224 393.736 81.104 393.736 79.6C393.736 78.08 394.488 76.976 395.96 76.976C397.32 76.976 398.136 77.872 398.136 79.6C398.136 81.328 397.32 82.224 395.96 82.224ZM405.041 82.864C403.553 82.864 402.673 81.728 402.673 80.352H408.945C408.945 77.44 407.649 75.6 405.009 75.6C402.545 75.6 400.993 77.264 400.993 79.92C400.993 82.48 402.545 84.24 405.089 84.24C407.185 84.24 408.401 83.056 408.817 81.504H407.137C406.993 82 406.433 82.864 405.041 82.864ZM405.009 76.928C406.369 76.928 407.265 77.84 407.265 79.104H402.673C402.673 77.84 403.649 76.928 405.009 76.928ZM414.497 75.6C413.089 75.6 412.241 76.24 411.809 76.88H411.777V75.824H410.097V84H411.777V79.024C411.777 77.808 412.609 77.024 413.905 77.024C415.057 77.024 415.521 77.728 415.521 78.832V84H417.217V78.352C417.217 76.48 416.017 75.6 414.497 75.6ZM422.369 82.864C420.881 82.864 420.001 81.728 420.001 80.352H426.273C426.273 77.44 424.977 75.6 422.337 75.6C419.873 75.6 418.321 77.264 418.321 79.92C418.321 82.48 419.873 84.24 422.417 84.24C424.513 84.24 425.729 83.056 426.145 81.504H424.465C424.321 82 423.761 82.864 422.369 82.864ZM422.337 76.928C423.697 76.928 424.593 77.84 424.593 79.104H420.001C420.001 77.84 420.977 76.928 422.337 76.928ZM431.313 75.632C430.241 75.632 429.569 76.336 429.137 77.36H429.105V75.824H427.425V84H429.105V79.824C429.105 78.08 430.401 76.992 432.017 77.264H432.049V75.68C431.809 75.648 431.601 75.632 431.313 75.632ZM437.791 77.968C437.791 78.752 437.023 78.912 435.759 79.152C433.711 79.552 432.383 80.112 432.383 81.904C432.383 83.28 433.407 84.24 435.071 84.24C436.335 84.24 437.263 83.744 437.775 83.024H437.807C437.967 83.824 438.383 84.144 439.279 84.144C439.599 84.144 439.871 84.112 440.255 83.968V83.168C439.599 83.232 439.471 82.928 439.471 82.352V78.464C439.471 76.288 438.127 75.6 436.319 75.6C433.855 75.6 432.847 76.832 432.767 78.4H434.399C434.479 77.344 434.975 76.928 436.319 76.928C437.439 76.928 437.791 77.376 437.791 77.968ZM435.439 82.912C434.527 82.912 434.079 82.496 434.079 81.744C434.079 80.912 434.687 80.512 436.079 80.208C436.863 80.048 437.519 79.856 437.791 79.664V80.896C437.791 82.224 436.831 82.912 435.439 82.912ZM444.985 77.2V75.824H443.449V73.248H441.753V75.824H440.569V77.2H441.753V81.776C441.753 83.504 442.489 84.112 443.833 84.112C444.281 84.112 444.649 84.064 444.985 83.984V82.608C443.897 82.672 443.449 82.56 443.449 81.632V77.2H444.985ZM449.744 82.864C448.256 82.864 447.376 81.728 447.376 80.352H453.648C453.648 77.44 452.352 75.6 449.712 75.6C447.248 75.6 445.696 77.264 445.696 79.92C445.696 82.48 447.248 84.24 449.792 84.24C451.888 84.24 453.104 83.056 453.52 81.504H451.84C451.696 82 451.136 82.864 449.744 82.864ZM449.712 76.928C451.072 76.928 451.968 77.84 451.968 79.104H447.376C447.376 77.84 448.352 76.928 449.712 76.928ZM460.544 72.56V76.816H460.512C460.08 76.192 459.28 75.6 458.016 75.6C455.92 75.6 454.368 77.232 454.368 79.92C454.368 82.608 455.92 84.24 458.016 84.24C459.28 84.24 460.08 83.616 460.512 83.056H460.544V84H462.224V72.56H460.544ZM458.304 82.864C456.832 82.864 456.048 81.52 456.048 79.92C456.048 78.32 456.832 76.976 458.304 76.976C459.68 76.976 460.528 78.096 460.528 79.92C460.528 81.728 459.68 82.864 458.304 82.864ZM471.118 75.6C469.838 75.6 469.038 76.208 468.606 76.784H468.574V75.824H466.878V86.784H468.574V83.024H468.606C469.038 83.632 469.838 84.24 471.118 84.24C473.198 84.24 474.75 82.608 474.75 79.92C474.75 77.232 473.198 75.6 471.118 75.6ZM470.798 82.864C469.438 82.864 468.59 81.728 468.59 79.92C468.59 78.096 469.438 76.976 470.798 76.976C472.27 76.976 473.054 78.32 473.054 79.92C473.054 81.52 472.27 82.864 470.798 82.864ZM479.588 82.864C478.1 82.864 477.22 81.728 477.22 80.352H483.492C483.492 77.44 482.196 75.6 479.556 75.6C477.092 75.6 475.54 77.264 475.54 79.92C475.54 82.48 477.092 84.24 479.636 84.24C481.732 84.24 482.948 83.056 483.364 81.504H481.684C481.54 82 480.98 82.864 479.588 82.864ZM479.556 76.928C480.916 76.928 481.812 77.84 481.812 79.104H477.22C477.22 77.84 478.196 76.928 479.556 76.928ZM488.532 75.632C487.46 75.632 486.788 76.336 486.356 77.36H486.324V75.824H484.644V84H486.324V79.824C486.324 78.08 487.62 76.992 489.236 77.264H489.268V75.68C489.028 75.648 488.82 75.632 488.532 75.632ZM499.026 78.816H500.706C500.498 76.96 499.106 75.6 496.978 75.6C494.546 75.6 492.962 77.36 492.962 79.92C492.962 82.48 494.546 84.24 496.994 84.24C499.122 84.24 500.578 82.848 500.706 80.96H499.026C498.962 81.872 498.434 82.864 496.994 82.864C495.33 82.864 494.642 81.456 494.642 79.92C494.642 78.384 495.346 76.976 496.994 76.976C498.434 76.976 498.962 77.984 499.026 78.816ZM501.848 72.56V84H503.544V72.56H501.848ZM505.994 74.448C506.49 74.448 506.954 74.128 506.954 73.552C506.954 72.976 506.49 72.672 505.994 72.672C505.53 72.672 505.05 72.976 505.05 73.552C505.05 74.128 505.53 74.448 505.994 74.448ZM505.162 75.824V84H506.842V75.824H505.162ZM512.166 82.864C510.678 82.864 509.798 81.728 509.798 80.352H516.07C516.07 77.44 514.774 75.6 512.134 75.6C509.67 75.6 508.118 77.264 508.118 79.92C508.118 82.48 509.67 84.24 512.214 84.24C514.31 84.24 515.526 83.056 515.942 81.504H514.262C514.118 82 513.558 82.864 512.166 82.864ZM512.134 76.928C513.494 76.928 514.39 77.84 514.39 79.104H509.798C509.798 77.84 510.774 76.928 512.134 76.928ZM521.622 75.6C520.214 75.6 519.366 76.24 518.934 76.88H518.902V75.824H517.222V84H518.902V79.024C518.902 77.808 519.734 77.024 521.03 77.024C522.182 77.024 522.646 77.728 522.646 78.832V84H524.342V78.352C524.342 76.48 523.142 75.6 521.622 75.6ZM529.626 77.2V75.824H528.09V73.248H526.394V75.824H525.21V77.2H526.394V81.776C526.394 83.504 527.13 84.112 528.474 84.112C528.922 84.112 529.29 84.064 529.626 83.984V82.608C528.538 82.672 528.09 82.56 528.09 81.632V77.2H529.626ZM289.04 95.6C287.76 95.6 286.96 96.208 286.528 96.784H286.496V95.824H284.8V106.784H286.496V103.024H286.528C286.96 103.632 287.76 104.24 289.04 104.24C291.12 104.24 292.672 102.608 292.672 99.92C292.672 97.232 291.12 95.6 289.04 95.6ZM288.72 102.864C287.36 102.864 286.512 101.728 286.512 99.92C286.512 98.096 287.36 96.976 288.72 96.976C290.192 96.976 290.976 98.32 290.976 99.92C290.976 101.52 290.192 102.864 288.72 102.864ZM297.51 102.864C296.022 102.864 295.142 101.728 295.142 100.352H301.414C301.414 97.44 300.118 95.6 297.478 95.6C295.014 95.6 293.462 97.264 293.462 99.92C293.462 102.48 295.014 104.24 297.558 104.24C299.654 104.24 300.87 103.056 301.286 101.504H299.606C299.462 102 298.902 102.864 297.51 102.864ZM297.478 96.928C298.838 96.928 299.734 97.84 299.734 99.104H295.142C295.142 97.84 296.118 96.928 297.478 96.928ZM306.454 95.632C305.382 95.632 304.71 96.336 304.278 97.36H304.246V95.824H302.566V104H304.246V99.824C304.246 98.08 305.542 96.992 307.158 97.264H307.19V95.68C306.95 95.648 306.742 95.632 306.454 95.632ZM311.524 92.56V104H313.428V92.56H311.524ZM315.398 104H317.302V99.424H320.262C322.454 99.424 324.038 98.384 324.038 95.984C324.038 93.584 322.454 92.56 320.262 92.56H315.398V104ZM317.302 94.176H320.182C321.462 94.176 322.134 94.736 322.134 95.984C322.134 97.248 321.462 97.792 320.182 97.792H317.302V94.176ZM330.644 104.24C334.084 104.24 336.26 101.712 336.26 98.272C336.26 94.832 334.084 92.32 330.644 92.32C327.188 92.32 325.028 94.832 325.028 98.272C325.028 101.712 327.188 104.24 330.644 104.24ZM330.644 102.608C328.02 102.608 326.916 100.592 326.916 98.272C326.916 95.968 328.02 93.952 330.644 93.952C333.268 93.952 334.356 95.968 334.356 98.272C334.356 100.592 333.268 102.608 330.644 102.608Z" fill="white" fill-opacity="0.65"/>
</svg>
