<svg width="16" height="16" viewBox="0 0 16 16" fill="none" xmlns="http://www.w3.org/2000/svg">
<g id="material-symbols:star-rounded">
<path id="Vector" d="M8 12.1834L5.23333 13.85C5.11111 13.9278 4.98333 13.9612 4.85 13.95C4.71667 13.9389 4.6 13.8945 4.5 13.8167C4.4 13.7389 4.32222 13.6418 4.26667 13.5254C4.21111 13.4085 4.2 13.2778 4.23333 13.1334L4.96667 9.98338L2.51667 7.86672C2.40555 7.76672 2.33622 7.65272 2.30867 7.52472C2.28067 7.39716 2.28889 7.27227 2.33333 7.15005C2.37778 7.02783 2.44444 6.92783 2.53333 6.85005C2.62222 6.77227 2.74444 6.72227 2.9 6.70005L6.13333 6.41672L7.38333 3.45005C7.43889 3.31672 7.52511 3.21672 7.642 3.15005C7.75844 3.08338 7.87778 3.05005 8 3.05005C8.12222 3.05005 8.24178 3.08338 8.35867 3.15005C8.47511 3.21672 8.56111 3.31672 8.61667 3.45005L9.86667 6.41672L13.1 6.70005C13.2556 6.72227 13.3778 6.77227 13.4667 6.85005C13.5556 6.92783 13.6222 7.02783 13.6667 7.15005C13.7111 7.27227 13.7196 7.39716 13.692 7.52472C13.664 7.65272 13.5944 7.76672 13.4833 7.86672L11.0333 9.98338L11.7667 13.1334C11.8 13.2778 11.7889 13.4085 11.7333 13.5254C11.6778 13.6418 11.6 13.7389 11.5 13.8167C11.4 13.8945 11.2833 13.9389 11.15 13.95C11.0167 13.9612 10.8889 13.9278 10.7667 13.85L8 12.1834Z" fill="#0E8B00"/>
</g>
</svg>
