<svg width="442" height="104" viewBox="0 0 442 104" fill="none" xmlns="http://www.w3.org/2000/svg">
<mask id="path-1-inside-1_443_144" fill="white">
<path d="M0 0H442V104H0V0Z"/>
</mask>
<path d="M0 1H442V-1H0V1Z" fill="white" fill-opacity="0.5" mask="url(#path-1-inside-1_443_144)"/>
<path d="M2.88 33.504V30.176H8.976V28.56H0.976V40H2.88V35.136H7.824V33.504H2.88ZM11.119 30.448C11.615 30.448 12.079 30.128 12.079 29.552C12.079 28.976 11.615 28.672 11.119 28.672C10.655 28.672 10.175 28.976 10.175 29.552C10.175 30.128 10.655 30.448 11.119 30.448ZM10.287 31.824V40H11.967V31.824H10.287ZM18.075 31.6C16.667 31.6 15.819 32.24 15.387 32.88H15.355V31.824H13.675V40H15.355V35.024C15.355 33.808 16.187 33.024 17.483 33.024C18.635 33.024 19.099 33.728 19.099 34.832V40H20.795V34.352C20.795 32.48 19.595 31.6 18.075 31.6ZM28.0753 28.56V32.816H28.0433C27.6113 32.192 26.8113 31.6 25.5473 31.6C23.4513 31.6 21.8993 33.232 21.8993 35.92C21.8993 38.608 23.4513 40.24 25.5473 40.24C26.8113 40.24 27.6113 39.616 28.0433 39.056H28.0753V40H29.7552V28.56H28.0753ZM25.8353 38.864C24.3633 38.864 23.5793 37.52 23.5793 35.92C23.5793 34.32 24.3633 32.976 25.8353 32.976C27.2113 32.976 28.0593 34.096 28.0593 35.92C28.0593 37.728 27.2113 38.864 25.8353 38.864ZM38.0894 40.24C35.5294 40.24 33.9774 38.464 33.9774 35.92C33.9774 33.376 35.5294 31.6 38.0894 31.6C40.6494 31.6 42.2014 33.376 42.2014 35.92C42.2014 38.464 40.6494 40.24 38.0894 40.24ZM38.0894 38.864C39.6894 38.864 40.5214 37.6 40.5214 35.92C40.5214 34.224 39.6894 32.976 38.0894 32.976C36.4894 32.976 35.6574 34.224 35.6574 35.92C35.6574 37.6 36.4894 38.864 38.0894 38.864ZM47.6025 31.6C46.3225 31.6 45.5225 32.208 45.0905 32.784H45.0585V31.824H43.3625V42.784H45.0585V39.024H45.0905C45.5225 39.632 46.3225 40.24 47.6025 40.24C49.6825 40.24 51.2345 38.608 51.2345 35.92C51.2345 33.232 49.6825 31.6 47.6025 31.6ZM47.2825 38.864C45.9225 38.864 45.0745 37.728 45.0745 35.92C45.0745 34.096 45.9225 32.976 47.2825 32.976C48.7545 32.976 49.5385 34.32 49.5385 35.92C49.5385 37.52 48.7545 38.864 47.2825 38.864ZM56.6963 31.6C55.4163 31.6 54.6163 32.208 54.1843 32.784H54.1523V31.824H52.4563V42.784H54.1523V39.024H54.1843C54.6163 39.632 55.4163 40.24 56.6963 40.24C58.7763 40.24 60.3283 38.608 60.3283 35.92C60.3283 33.232 58.7763 31.6 56.6963 31.6ZM56.3763 38.864C55.0163 38.864 54.1683 37.728 54.1683 35.92C54.1683 34.096 55.0163 32.976 56.3763 32.976C57.8483 32.976 58.6323 34.32 58.6323 35.92C58.6323 37.52 57.8483 38.864 56.3763 38.864ZM65.23 40.24C62.67 40.24 61.118 38.464 61.118 35.92C61.118 33.376 62.67 31.6 65.23 31.6C67.79 31.6 69.342 33.376 69.342 35.92C69.342 38.464 67.79 40.24 65.23 40.24ZM65.23 38.864C66.83 38.864 67.662 37.6 67.662 35.92C67.662 34.224 66.83 32.976 65.23 32.976C63.63 32.976 62.798 34.224 62.798 35.92C62.798 37.6 63.63 38.864 65.23 38.864ZM74.3911 31.632C73.3191 31.632 72.6471 32.336 72.2151 33.36H72.1831V31.824H70.5031V40H72.1831V35.824C72.1831 34.08 73.4791 32.992 75.0951 33.264H75.1271V31.68C74.8871 31.648 74.6791 31.632 74.3911 31.632ZM80.1571 33.2V31.824H78.6211V29.248H76.9251V31.824H75.7411V33.2H76.9251V37.776C76.9251 39.504 77.6611 40.112 79.0051 40.112C79.4531 40.112 79.8211 40.064 80.1571 39.984V38.608C79.0691 38.672 78.6211 38.56 78.6211 37.632V33.2H80.1571ZM86.7541 31.824V36.8C86.7541 38.016 85.9221 38.8 84.6261 38.8C83.4741 38.8 83.0101 38.096 83.0101 36.992V31.824H81.3141V37.472C81.3141 39.344 82.5141 40.224 84.0341 40.224C85.4421 40.224 86.2901 39.584 86.7221 38.944H86.7541V40H88.4341V31.824H86.7541ZM94.4344 31.6C93.0264 31.6 92.1784 32.24 91.7464 32.88H91.7144V31.824H90.0344V40H91.7144V35.024C91.7144 33.808 92.5464 33.024 93.8424 33.024C94.9944 33.024 95.4584 33.728 95.4584 34.832V40H97.1544V34.352C97.1544 32.48 95.9544 31.6 94.4344 31.6ZM99.6346 30.448C100.131 30.448 100.595 30.128 100.595 29.552C100.595 28.976 100.131 28.672 99.6346 28.672C99.1706 28.672 98.6906 28.976 98.6906 29.552C98.6906 30.128 99.1706 30.448 99.6346 30.448ZM98.8026 31.824V40H100.483V31.824H98.8026ZM106.095 33.2V31.824H104.559V29.248H102.863V31.824H101.679V33.2H102.863V37.776C102.863 39.504 103.599 40.112 104.943 40.112C105.391 40.112 105.759 40.064 106.095 39.984V38.608C105.007 38.672 104.559 38.56 104.559 37.632V33.2H106.095ZM108.26 30.448C108.756 30.448 109.22 30.128 109.22 29.552C109.22 28.976 108.756 28.672 108.26 28.672C107.796 28.672 107.316 28.976 107.316 29.552C107.316 30.128 107.796 30.448 108.26 30.448ZM107.428 31.824V40H109.108V31.824H107.428ZM114.432 38.864C112.944 38.864 112.064 37.728 112.064 36.352H118.336C118.336 33.44 117.04 31.6 114.4 31.6C111.936 31.6 110.384 33.264 110.384 35.92C110.384 38.48 111.936 40.24 114.48 40.24C116.576 40.24 117.792 39.056 118.208 37.504H116.528C116.384 38 115.824 38.864 114.432 38.864ZM114.4 32.928C115.76 32.928 116.656 33.84 116.656 35.104H112.064C112.064 33.84 113.04 32.928 114.4 32.928ZM123.024 35.056C121.84 34.784 120.928 34.72 120.928 33.888C120.928 33.312 121.472 32.928 122.48 32.928C123.792 32.928 124.112 33.584 124.224 34.224H125.856C125.744 32.8 124.688 31.6 122.464 31.6C120.416 31.6 119.232 32.672 119.232 34.016C119.232 35.872 120.992 36.128 122.288 36.432C123.488 36.72 124.464 36.8 124.464 37.824C124.464 38.336 123.968 38.912 122.799 38.912C121.072 38.912 120.688 38.16 120.608 37.28H118.976C119.056 39.008 120.192 40.24 122.832 40.24C124.816 40.24 126.16 39.264 126.16 37.696C126.16 35.744 124.528 35.408 123.024 35.056ZM4.656 49.936V48.56C4.32 48.496 3.952 48.448 3.536 48.448C2.192 48.448 1.456 49.056 1.456 50.784V51.824H0.288V53.2H1.456V60H3.152V53.2H4.656V51.824H3.152V50.928C3.152 50 3.568 49.888 4.656 49.936ZM9.21438 60.24C6.65438 60.24 5.10238 58.464 5.10238 55.92C5.10238 53.376 6.65438 51.6 9.21438 51.6C11.7744 51.6 13.3264 53.376 13.3264 55.92C13.3264 58.464 11.7744 60.24 9.21438 60.24ZM9.21438 58.864C10.8144 58.864 11.6464 57.6 11.6464 55.92C11.6464 54.224 10.8144 52.976 9.21438 52.976C7.61438 52.976 6.78238 54.224 6.78238 55.92C6.78238 57.6 7.61438 58.864 9.21438 58.864ZM18.3755 51.632C17.3035 51.632 16.6315 52.336 16.1995 53.36H16.1675V51.824H14.4875V60H16.1675V55.824C16.1675 54.08 17.4635 52.992 19.0795 53.264H19.1115V51.68C18.8715 51.648 18.6635 51.632 18.3755 51.632ZM26.8535 58.864C25.3655 58.864 24.4855 57.728 24.4855 56.352H30.7575C30.7575 53.44 29.4615 51.6 26.8215 51.6C24.3575 51.6 22.8055 53.264 22.8055 55.92C22.8055 58.48 24.3575 60.24 26.9015 60.24C28.9975 60.24 30.2135 59.056 30.6295 57.504H28.9495C28.8055 58 28.2455 58.864 26.8535 58.864ZM26.8215 52.928C28.1815 52.928 29.0775 53.84 29.0775 55.104H24.4855C24.4855 53.84 25.4615 52.928 26.8215 52.928ZM30.9219 51.824L33.8179 60H35.7219L38.6179 51.824H36.8419L34.7779 58.224H34.7619L32.6979 51.824H30.9219ZM42.8379 58.864C41.3499 58.864 40.4699 57.728 40.4699 56.352H46.7419C46.7419 53.44 45.4459 51.6 42.8059 51.6C40.3419 51.6 38.7899 53.264 38.7899 55.92C38.7899 58.48 40.3419 60.24 42.8859 60.24C44.9819 60.24 46.1979 59.056 46.6139 57.504H44.9339C44.7899 58 44.2299 58.864 42.8379 58.864ZM42.8059 52.928C44.1659 52.928 45.0619 53.84 45.0619 55.104H40.4699C40.4699 53.84 41.4459 52.928 42.8059 52.928ZM51.7818 51.632C50.7098 51.632 50.0378 52.336 49.6058 53.36H49.5738V51.824H47.8938V60H49.5738V55.824C49.5738 54.08 50.8698 52.992 52.4858 53.264H52.5178V51.68C52.2778 51.648 52.0698 51.632 51.7818 51.632ZM60.8598 51.824H59.0678L56.9718 58.08H56.9398L54.6518 51.824H52.8438L55.8038 59.168C56.1078 59.936 55.8838 60.576 55.5798 60.944C55.2118 61.392 54.6838 61.44 53.9798 61.344H53.8358V62.624C54.1558 62.704 54.5558 62.784 55.0358 62.784C56.6038 62.784 57.1318 61.776 57.5958 60.512L60.8598 51.824ZM68.2579 55.056C67.0739 54.784 66.1619 54.72 66.1619 53.888C66.1619 53.312 66.7059 52.928 67.7139 52.928C69.0259 52.928 69.3459 53.584 69.4579 54.224H71.0899C70.9779 52.8 69.9219 51.6 67.6979 51.6C65.6499 51.6 64.4659 52.672 64.4659 54.016C64.4659 55.872 66.2259 56.128 67.5219 56.432C68.7219 56.72 69.6979 56.8 69.6979 57.824C69.6979 58.336 69.2019 58.912 68.0339 58.912C66.3059 58.912 65.9219 58.16 65.8419 57.28H64.2099C64.2899 59.008 65.4259 60.24 68.0659 60.24C70.0499 60.24 71.3939 59.264 71.3939 57.696C71.3939 55.744 69.7619 55.408 68.2579 55.056ZM76.2352 53.2V51.824H74.6993V49.248H73.0033V51.824H71.8193V53.2H73.0033V57.776C73.0033 59.504 73.7393 60.112 75.0833 60.112C75.5312 60.112 75.8993 60.064 76.2352 59.984V58.608C75.1473 58.672 74.6993 58.56 74.6993 57.632V53.2H76.2352ZM82.4471 53.968C82.4471 54.752 81.6791 54.912 80.4151 55.152C78.3671 55.552 77.0391 56.112 77.0391 57.904C77.0391 59.28 78.0631 60.24 79.7271 60.24C80.9911 60.24 81.9191 59.744 82.4311 59.024H82.4631C82.6231 59.824 83.0391 60.144 83.9351 60.144C84.2551 60.144 84.5271 60.112 84.9111 59.968V59.168C84.2551 59.232 84.1271 58.928 84.1271 58.352V54.464C84.1271 52.288 82.7831 51.6 80.9751 51.6C78.5111 51.6 77.5031 52.832 77.4231 54.4H79.0551C79.1351 53.344 79.6311 52.928 80.9751 52.928C82.0951 52.928 82.4471 53.376 82.4471 53.968ZM80.0951 58.912C79.1831 58.912 78.7351 58.496 78.7351 57.744C78.7351 56.912 79.3431 56.512 80.7351 56.208C81.5191 56.048 82.1751 55.856 82.4471 55.664V56.896C82.4471 58.224 81.4871 58.912 80.0951 58.912ZM91.5578 51.824V52.784H91.5258C91.0938 52.208 90.3418 51.6 89.0458 51.6C86.9978 51.6 85.4618 53.008 85.4618 55.6C85.4618 58.176 86.9978 59.6 89.0458 59.6C90.3418 59.6 91.0938 58.992 91.5258 58.384H91.5578V59.376C91.5578 60.848 90.8378 61.488 89.4298 61.488C88.1018 61.488 87.5258 60.944 87.3658 60.224H85.6698C85.8458 61.6 87.1418 62.832 89.4938 62.832C91.8138 62.832 93.2378 61.792 93.2378 59.44V51.824H91.5578ZM89.3658 58.224C87.8938 58.224 87.1418 57.104 87.1418 55.6C87.1418 54.08 87.8938 52.976 89.3658 52.976C90.7258 52.976 91.5418 53.872 91.5418 55.6C91.5418 57.328 90.7258 58.224 89.3658 58.224ZM98.4473 58.864C96.9593 58.864 96.0793 57.728 96.0793 56.352H102.351C102.351 53.44 101.055 51.6 98.4153 51.6C95.9513 51.6 94.3993 53.264 94.3993 55.92C94.3993 58.48 95.9513 60.24 98.4953 60.24C100.591 60.24 101.807 59.056 102.223 57.504H100.543C100.399 58 99.8393 58.864 98.4473 58.864ZM98.4153 52.928C99.7753 52.928 100.671 53.84 100.671 55.104H96.0793C96.0793 53.84 97.0553 52.928 98.4153 52.928ZM110.23 60.24C107.67 60.24 106.118 58.464 106.118 55.92C106.118 53.376 107.67 51.6 110.23 51.6C112.79 51.6 114.342 53.376 114.342 55.92C114.342 58.464 112.79 60.24 110.23 60.24ZM110.23 58.864C111.83 58.864 112.662 57.6 112.662 55.92C112.662 54.224 111.83 52.976 110.23 52.976C108.63 52.976 107.798 54.224 107.798 55.92C107.798 57.6 108.63 58.864 110.23 58.864ZM119.203 49.936V48.56C118.867 48.496 118.499 48.448 118.083 48.448C116.739 48.448 116.003 49.056 116.003 50.784V51.824H114.835V53.2H116.003V60H117.699V53.2H119.203V51.824H117.699V50.928C117.699 50 118.115 49.888 119.203 49.936ZM8.016 71.824H6.224L4.128 78.08H4.096L1.808 71.824H0L2.96 79.168C3.264 79.936 3.04 80.576 2.736 80.944C2.368 81.392 1.84 81.44 1.136 81.344H0.992V82.624C1.312 82.704 1.712 82.784 2.192 82.784C3.76 82.784 4.288 81.776 4.752 80.512L8.016 71.824ZM12.3081 80.24C9.74813 80.24 8.19613 78.464 8.19613 75.92C8.19613 73.376 9.74813 71.6 12.3081 71.6C14.8681 71.6 16.4201 73.376 16.4201 75.92C16.4201 78.464 14.8681 80.24 12.3081 80.24ZM12.3081 78.864C13.9081 78.864 14.7401 77.6 14.7401 75.92C14.7401 74.224 13.9081 72.976 12.3081 72.976C10.7081 72.976 9.87613 74.224 9.87613 75.92C9.87613 77.6 10.7081 78.864 12.3081 78.864ZM22.9573 71.824V76.8C22.9573 78.016 22.1253 78.8 20.8293 78.8C19.6773 78.8 19.2133 78.096 19.2133 76.992V71.824H17.5173V77.472C17.5173 79.344 18.7173 80.224 20.2373 80.224C21.6453 80.224 22.4933 79.584 22.9253 78.944H22.9573V80H24.6373V71.824H22.9573ZM30.1255 71.632C29.0535 71.632 28.3815 72.336 27.9495 73.36H27.9175V71.824H26.2375V80H27.9175V75.824C27.9175 74.08 29.2135 72.992 30.8295 73.264H30.8615V71.68C30.6215 71.648 30.4135 71.632 30.1255 71.632ZM38.8435 69.936V68.56C38.5075 68.496 38.1395 68.448 37.7235 68.448C36.3795 68.448 35.6435 69.056 35.6435 70.784V71.824H34.4755V73.2H35.6435V80H37.3395V73.2H38.8435V71.824H37.3395V70.928C37.3395 70 37.7555 69.888 38.8435 69.936ZM43.8443 71.632C42.7723 71.632 42.1003 72.336 41.6683 73.36H41.6363V71.824H39.9563V80H41.6363V75.824C41.6363 74.08 42.9323 72.992 44.5483 73.264H44.5803V71.68C44.3403 71.648 44.1323 71.632 43.8443 71.632ZM49.0098 78.864C47.5218 78.864 46.6418 77.728 46.6418 76.352H52.9138C52.9138 73.44 51.6178 71.6 48.9778 71.6C46.5138 71.6 44.9618 73.264 44.9618 75.92C44.9618 78.48 46.5138 80.24 49.0578 80.24C51.1538 80.24 52.3698 79.056 52.7858 77.504H51.1058C50.9618 78 50.4018 78.864 49.0098 78.864ZM48.9778 72.928C50.3378 72.928 51.2338 73.84 51.2338 75.104H46.6418C46.6418 73.84 47.6178 72.928 48.9778 72.928ZM57.6816 78.864C56.1936 78.864 55.3136 77.728 55.3136 76.352H61.5856C61.5856 73.44 60.2896 71.6 57.6496 71.6C55.1856 71.6 53.6336 73.264 53.6336 75.92C53.6336 78.48 55.1856 80.24 57.7296 80.24C59.8256 80.24 61.0416 79.056 61.4576 77.504H59.7776C59.6336 78 59.0736 78.864 57.6816 78.864ZM57.6496 72.928C59.0096 72.928 59.9056 73.84 59.9056 75.104H55.3136C55.3136 73.84 56.2896 72.928 57.6496 72.928ZM62.7695 68.56V80H64.4655V68.56H62.7695ZM71.0409 73.968C71.0409 74.752 70.2729 74.912 69.0089 75.152C66.9609 75.552 65.6329 76.112 65.6329 77.904C65.6329 79.28 66.6569 80.24 68.3209 80.24C69.5849 80.24 70.5129 79.744 71.0249 79.024H71.0569C71.2169 79.824 71.6329 80.144 72.5289 80.144C72.8489 80.144 73.1209 80.112 73.5049 79.968V79.168C72.8489 79.232 72.7209 78.928 72.7209 78.352V74.464C72.7209 72.288 71.3769 71.6 69.5689 71.6C67.1049 71.6 66.0969 72.832 66.0169 74.4H67.6489C67.7289 73.344 68.2249 72.928 69.5689 72.928C70.6889 72.928 71.0409 73.376 71.0409 73.968ZM68.6889 78.912C67.7769 78.912 67.3289 78.496 67.3289 77.744C67.3289 76.912 67.9369 76.512 69.3289 76.208C70.1129 76.048 70.7689 75.856 71.0409 75.664V76.896C71.0409 78.224 70.0809 78.912 68.6889 78.912ZM78.8875 71.6C77.4795 71.6 76.6315 72.24 76.1995 72.88H76.1675V71.824H74.4875V80H76.1675V75.024C76.1675 73.808 76.9995 73.024 78.2955 73.024C79.4475 73.024 79.9115 73.728 79.9115 74.832V80H81.6075V74.352C81.6075 72.48 80.4075 71.6 78.8875 71.6ZM88.7758 74.816H90.4558C90.2478 72.96 88.8558 71.6 86.7278 71.6C84.2958 71.6 82.7118 73.36 82.7118 75.92C82.7118 78.48 84.2958 80.24 86.7438 80.24C88.8718 80.24 90.3278 78.848 90.4558 76.96H88.7758C88.7118 77.872 88.1838 78.864 86.7438 78.864C85.0798 78.864 84.3918 77.456 84.3918 75.92C84.3918 74.384 85.0958 72.976 86.7438 72.976C88.1838 72.976 88.7118 73.984 88.7758 74.816ZM95.1816 78.864C93.6936 78.864 92.8136 77.728 92.8136 76.352H99.0856C99.0856 73.44 97.7896 71.6 95.1496 71.6C92.6856 71.6 91.1336 73.264 91.1336 75.92C91.1336 78.48 92.6856 80.24 95.2296 80.24C97.3256 80.24 98.5416 79.056 98.9576 77.504H97.2776C97.1336 78 96.5736 78.864 95.1816 78.864ZM95.1496 72.928C96.5096 72.928 97.4056 73.84 97.4056 75.104H92.8136C92.8136 73.84 93.7896 72.928 95.1496 72.928ZM6.432 94.816H8.112C7.904 92.96 6.512 91.6 4.384 91.6C1.952 91.6 0.368 93.36 0.368 95.92C0.368 98.48 1.952 100.24 4.4 100.24C6.528 100.24 7.984 98.848 8.112 96.96H6.432C6.368 97.872 5.84 98.864 4.4 98.864C2.736 98.864 2.048 97.456 2.048 95.92C2.048 94.384 2.752 92.976 4.4 92.976C5.84 92.976 6.368 93.984 6.432 94.816ZM14.3221 93.968C14.3221 94.752 13.5541 94.912 12.2901 95.152C10.2421 95.552 8.91413 96.112 8.91413 97.904C8.91413 99.28 9.93813 100.24 11.6021 100.24C12.8661 100.24 13.7941 99.744 14.3061 99.024H14.3381C14.4981 99.824 14.9141 100.144 15.8101 100.144C16.1301 100.144 16.4021 100.112 16.7861 99.968V99.168C16.1301 99.232 16.0021 98.928 16.0021 98.352V94.464C16.0021 92.288 14.6581 91.6 12.8501 91.6C10.3861 91.6 9.37813 92.832 9.29813 94.4H10.9301C11.0101 93.344 11.5061 92.928 12.8501 92.928C13.9701 92.928 14.3221 93.376 14.3221 93.968ZM11.9701 98.912C11.0581 98.912 10.6101 98.496 10.6101 97.744C10.6101 96.912 11.2181 96.512 12.6101 96.208C13.3941 96.048 14.0501 95.856 14.3221 95.664V96.896C14.3221 98.224 13.3621 98.912 11.9701 98.912ZM21.6568 91.632C20.5848 91.632 19.9128 92.336 19.4808 93.36H19.4488V91.824H17.7688V100H19.4488V95.824C19.4488 94.08 20.7448 92.992 22.3608 93.264H22.3928V91.68C22.1528 91.648 21.9448 91.632 21.6568 91.632ZM26.8223 98.864C25.3343 98.864 24.4543 97.728 24.4543 96.352H30.7263C30.7263 93.44 29.4303 91.6 26.7903 91.6C24.3263 91.6 22.7743 93.264 22.7743 95.92C22.7743 98.48 24.3263 100.24 26.8703 100.24C28.9663 100.24 30.1823 99.056 30.5983 97.504H28.9183C28.7743 98 28.2143 98.864 26.8223 98.864ZM26.7903 92.928C28.1503 92.928 29.0463 93.84 29.0463 95.104H24.4543C24.4543 93.84 25.4303 92.928 26.7903 92.928ZM35.4941 98.864C34.0061 98.864 33.1261 97.728 33.1261 96.352H39.3981C39.3981 93.44 38.1021 91.6 35.4621 91.6C32.9981 91.6 31.4461 93.264 31.4461 95.92C31.4461 98.48 32.9981 100.24 35.5421 100.24C37.6381 100.24 38.8541 99.056 39.2701 97.504H37.5901C37.4461 98 36.8861 98.864 35.4941 98.864ZM35.4621 92.928C36.8221 92.928 37.7181 93.84 37.7181 95.104H33.1261C33.1261 93.84 34.1021 92.928 35.4621 92.928ZM44.438 91.632C43.366 91.632 42.694 92.336 42.262 93.36H42.23V91.824H40.55V100H42.23V95.824C42.23 94.08 43.526 92.992 45.142 93.264H45.174V91.68C44.934 91.648 44.726 91.632 44.438 91.632Z" fill="white"/>
<path d="M170.944 32.496H172.848C172.576 30.16 170.816 28.32 167.92 28.32C164.624 28.32 162.544 30.832 162.544 34.272C162.544 37.728 164.624 40.24 167.92 40.24C170.832 40.24 172.592 38.4 172.848 35.824H170.944C170.816 37.216 170 38.608 167.872 38.608C165.408 38.608 164.432 36.544 164.432 34.272C164.432 32.016 165.408 29.952 167.872 29.952C169.984 29.952 170.736 31.344 170.944 32.496ZM177.808 40.24C175.248 40.24 173.696 38.464 173.696 35.92C173.696 33.376 175.248 31.6 177.808 31.6C180.368 31.6 181.92 33.376 181.92 35.92C181.92 38.464 180.368 40.24 177.808 40.24ZM177.808 38.864C179.408 38.864 180.24 37.6 180.24 35.92C180.24 34.224 179.408 32.976 177.808 32.976C176.208 32.976 175.376 34.224 175.376 35.92C175.376 37.6 176.208 38.864 177.808 38.864ZM187.481 31.6C186.073 31.6 185.225 32.24 184.793 32.88H184.761V31.824H183.081V40H184.761V35.024C184.761 33.808 185.593 33.024 186.889 33.024C188.041 33.024 188.505 33.728 188.505 34.832V40H190.201V34.352C190.201 32.48 189.001 31.6 187.481 31.6ZM195.485 33.2V31.824H193.949V29.248H192.253V31.824H191.069V33.2H192.253V37.776C192.253 39.504 192.989 40.112 194.333 40.112C194.781 40.112 195.149 40.064 195.485 39.984V38.608C194.397 38.672 193.949 38.56 193.949 37.632V33.2H195.485ZM200.594 31.632C199.522 31.632 198.85 32.336 198.418 33.36H198.386V31.824H196.706V40H198.386V35.824C198.386 34.08 199.682 32.992 201.298 33.264H201.33V31.68C201.09 31.648 200.882 31.632 200.594 31.632ZM205.824 40.24C203.264 40.24 201.712 38.464 201.712 35.92C201.712 33.376 203.264 31.6 205.824 31.6C208.384 31.6 209.936 33.376 209.936 35.92C209.936 38.464 208.384 40.24 205.824 40.24ZM205.824 38.864C207.424 38.864 208.256 37.6 208.256 35.92C208.256 34.224 207.424 32.976 205.824 32.976C204.224 32.976 203.392 34.224 203.392 35.92C203.392 37.6 204.224 38.864 205.824 38.864ZM211.129 28.56V40H212.825V28.56H211.129ZM216.735 31.824L219.247 40H220.927L222.671 33.76H222.703L224.463 40H226.159L228.655 31.824H226.879L225.231 38.032H225.199L223.519 31.824H221.871L220.207 38.032H220.175L218.511 31.824H216.735ZM233.871 31.6C232.495 31.6 231.647 32.24 231.215 32.88H231.183V28.56H229.503V40H231.183V35.024C231.183 33.808 232.063 33.024 233.295 33.024C234.463 33.024 234.927 33.728 234.927 34.832V40H236.623V34.352C236.623 32.48 235.423 31.6 233.871 31.6ZM241.775 38.864C240.287 38.864 239.407 37.728 239.407 36.352H245.679C245.679 33.44 244.383 31.6 241.743 31.6C239.279 31.6 237.727 33.264 237.727 35.92C237.727 38.48 239.279 40.24 241.823 40.24C243.919 40.24 245.135 39.056 245.551 37.504H243.871C243.727 38 243.167 38.864 241.775 38.864ZM241.743 32.928C243.103 32.928 243.999 33.84 243.999 35.104H239.407C239.407 33.84 240.383 32.928 241.743 32.928ZM251.231 31.6C249.823 31.6 248.975 32.24 248.543 32.88H248.511V31.824H246.831V40H248.511V35.024C248.511 33.808 249.343 33.024 250.639 33.024C251.791 33.024 252.255 33.728 252.255 34.832V40H253.951V34.352C253.951 32.48 252.751 31.6 251.231 31.6ZM256.464 40.112C256.464 40.72 256.08 41.216 255.488 41.328V42.24C256.88 42.016 257.456 40.688 257.456 39.52C257.456 38.624 257.088 38.048 256.368 38.048C255.792 38.048 255.328 38.432 255.328 39.12C255.328 39.872 255.84 40.224 256.464 40.112ZM162.032 51.824L164.544 60H166.224L167.968 53.76H168L169.76 60H171.456L173.952 51.824H172.176L170.528 58.032H170.496L168.816 51.824H167.168L165.504 58.032H165.472L163.808 51.824H162.032ZM179.168 51.6C177.792 51.6 176.944 52.24 176.512 52.88H176.48V48.56H174.8V60H176.48V55.024C176.48 53.808 177.36 53.024 178.592 53.024C179.76 53.024 180.224 53.728 180.224 54.832V60H181.92V54.352C181.92 52.48 180.72 51.6 179.168 51.6ZM187.072 58.864C185.584 58.864 184.704 57.728 184.704 56.352H190.976C190.976 53.44 189.68 51.6 187.04 51.6C184.576 51.6 183.024 53.264 183.024 55.92C183.024 58.48 184.576 60.24 187.12 60.24C189.216 60.24 190.432 59.056 190.848 57.504H189.168C189.024 58 188.464 58.864 187.072 58.864ZM187.04 52.928C188.4 52.928 189.296 53.84 189.296 55.104H184.704C184.704 53.84 185.68 52.928 187.04 52.928ZM196.016 51.632C194.944 51.632 194.272 52.336 193.84 53.36H193.808V51.824H192.128V60H193.808V55.824C193.808 54.08 195.104 52.992 196.72 53.264H196.752V51.68C196.512 51.648 196.304 51.632 196.016 51.632ZM201.182 58.864C199.694 58.864 198.814 57.728 198.814 56.352H205.086C205.086 53.44 203.79 51.6 201.15 51.6C198.686 51.6 197.134 53.264 197.134 55.92C197.134 58.48 198.686 60.24 201.23 60.24C203.326 60.24 204.542 59.056 204.958 57.504H203.278C203.134 58 202.574 58.864 201.182 58.864ZM201.15 52.928C202.51 52.928 203.406 53.84 203.406 55.104H198.814C198.814 53.84 199.79 52.928 201.15 52.928ZM207.089 60.112C207.089 60.72 206.705 61.216 206.113 61.328V62.24C207.505 62.016 208.081 60.688 208.081 59.52C208.081 58.624 207.713 58.048 206.993 58.048C206.417 58.048 205.953 58.432 205.953 59.12C205.953 59.872 206.465 60.224 207.089 60.112ZM217.51 53.968C217.51 54.752 216.742 54.912 215.478 55.152C213.43 55.552 212.102 56.112 212.102 57.904C212.102 59.28 213.126 60.24 214.79 60.24C216.054 60.24 216.982 59.744 217.494 59.024H217.526C217.686 59.824 218.102 60.144 218.998 60.144C219.318 60.144 219.59 60.112 219.974 59.968V59.168C219.318 59.232 219.19 58.928 219.19 58.352V54.464C219.19 52.288 217.846 51.6 216.038 51.6C213.574 51.6 212.566 52.832 212.486 54.4H214.118C214.198 53.344 214.694 52.928 216.038 52.928C217.158 52.928 217.51 53.376 217.51 53.968ZM215.158 58.912C214.246 58.912 213.798 58.496 213.798 57.744C213.798 56.912 214.406 56.512 215.798 56.208C216.582 56.048 217.238 55.856 217.51 55.664V56.896C217.51 58.224 216.55 58.912 215.158 58.912ZM225.356 51.6C223.948 51.6 223.1 52.24 222.668 52.88H222.636V51.824H220.956V60H222.636V55.024C222.636 53.808 223.468 53.024 224.764 53.024C225.916 53.024 226.38 53.728 226.38 54.832V60H228.076V54.352C228.076 52.48 226.876 51.6 225.356 51.6ZM235.357 48.56V52.816H235.325C234.893 52.192 234.093 51.6 232.829 51.6C230.733 51.6 229.181 53.232 229.181 55.92C229.181 58.608 230.733 60.24 232.829 60.24C234.093 60.24 234.893 59.616 235.325 59.056H235.357V60H237.036V48.56H235.357ZM233.117 58.864C231.645 58.864 230.861 57.52 230.861 55.92C230.861 54.32 231.645 52.976 233.117 52.976C234.493 52.976 235.341 54.096 235.341 55.92C235.341 57.728 234.493 58.864 233.117 58.864ZM246.059 51.6C244.683 51.6 243.835 52.24 243.403 52.88H243.371V48.56H241.691V60H243.371V55.024C243.371 53.808 244.251 53.024 245.483 53.024C246.651 53.024 247.115 53.728 247.115 54.832V60H248.811V54.352C248.811 52.48 247.611 51.6 246.059 51.6ZM254.027 60.24C251.467 60.24 249.915 58.464 249.915 55.92C249.915 53.376 251.467 51.6 254.027 51.6C256.587 51.6 258.139 53.376 258.139 55.92C258.139 58.464 256.587 60.24 254.027 60.24ZM254.027 58.864C255.627 58.864 256.459 57.6 256.459 55.92C256.459 54.224 255.627 52.976 254.027 52.976C252.427 52.976 251.595 54.224 251.595 55.92C251.595 57.6 252.427 58.864 254.027 58.864ZM258.329 51.824L260.841 60H262.521L264.265 53.76H264.297L266.057 60H267.753L270.249 51.824H268.473L266.825 58.032H266.793L265.113 51.824H263.465L261.801 58.032H261.769L260.105 51.824H258.329ZM170.016 71.824H168.224L166.128 78.08H166.096L163.808 71.824H162L164.96 79.168C165.264 79.936 165.04 80.576 164.736 80.944C164.368 81.392 163.84 81.44 163.136 81.344H162.992V82.624C163.312 82.704 163.712 82.784 164.192 82.784C165.76 82.784 166.288 81.776 166.752 80.512L170.016 71.824ZM174.308 80.24C171.748 80.24 170.196 78.464 170.196 75.92C170.196 73.376 171.748 71.6 174.308 71.6C176.868 71.6 178.42 73.376 178.42 75.92C178.42 78.464 176.868 80.24 174.308 80.24ZM174.308 78.864C175.908 78.864 176.74 77.6 176.74 75.92C176.74 74.224 175.908 72.976 174.308 72.976C172.708 72.976 171.876 74.224 171.876 75.92C171.876 77.6 172.708 78.864 174.308 78.864ZM184.957 71.824V76.8C184.957 78.016 184.125 78.8 182.829 78.8C181.677 78.8 181.213 78.096 181.213 76.992V71.824H179.517V77.472C179.517 79.344 180.717 80.224 182.237 80.224C183.645 80.224 184.493 79.584 184.925 78.944H184.957V80H186.637V71.824H184.957ZM190.516 71.824L193.028 80H194.708L196.452 73.76H196.484L198.244 80H199.94L202.436 71.824H200.66L199.012 78.032H198.98L197.3 71.824H195.652L193.988 78.032H193.956L192.292 71.824H190.516ZM206.761 80.24C204.201 80.24 202.649 78.464 202.649 75.92C202.649 73.376 204.201 71.6 206.761 71.6C209.321 71.6 210.873 73.376 210.873 75.92C210.873 78.464 209.321 80.24 206.761 80.24ZM206.761 78.864C208.361 78.864 209.193 77.6 209.193 75.92C209.193 74.224 208.361 72.976 206.761 72.976C205.161 72.976 204.329 74.224 204.329 75.92C204.329 77.6 205.161 78.864 206.761 78.864ZM215.922 71.632C214.85 71.632 214.178 72.336 213.746 73.36H213.714V71.824H212.034V80H213.714V75.824C213.714 74.08 215.01 72.992 216.626 73.264H216.658V71.68C216.418 71.648 216.21 71.632 215.922 71.632ZM217.738 68.56V80H219.418V77.04L220.554 75.968L223.13 80H225.146L221.706 74.864L224.81 71.824H222.746L219.418 75.104V68.56H217.738Z" fill="white"/>
<path d="M316.88 33.28V30.176H323.248V28.56H314.976V40H323.408V38.384H316.88V34.912H322.464V33.28H316.88ZM324.368 31.824L327.136 35.824L324.08 40H326.048L328.128 36.928H328.16L330.272 40H332.224L329.168 35.824L331.92 31.824H330.016L328.16 34.704H328.128L326.272 31.824H324.368ZM337.368 31.6C336.088 31.6 335.288 32.208 334.856 32.784H334.824V31.824H333.128V42.784H334.824V39.024H334.856C335.288 39.632 336.088 40.24 337.368 40.24C339.448 40.24 341 38.608 341 35.92C341 33.232 339.448 31.6 337.368 31.6ZM337.048 38.864C335.688 38.864 334.84 37.728 334.84 35.92C334.84 34.096 335.688 32.976 337.048 32.976C338.52 32.976 339.304 34.32 339.304 35.92C339.304 37.52 338.52 38.864 337.048 38.864ZM342.254 28.56V40H343.95V28.56H342.254ZM349.261 40.24C346.701 40.24 345.149 38.464 345.149 35.92C345.149 33.376 346.701 31.6 349.261 31.6C351.821 31.6 353.373 33.376 353.373 35.92C353.373 38.464 351.821 40.24 349.261 40.24ZM349.261 38.864C350.861 38.864 351.693 37.6 351.693 35.92C351.693 34.224 350.861 32.976 349.261 32.976C347.661 32.976 346.829 34.224 346.829 35.92C346.829 37.6 347.661 38.864 349.261 38.864ZM358.422 31.632C357.35 31.632 356.678 32.336 356.246 33.36H356.214V31.824H354.534V40H356.214V35.824C356.214 34.08 357.51 32.992 359.126 33.264H359.158V31.68C358.918 31.648 358.71 31.632 358.422 31.632ZM363.588 38.864C362.1 38.864 361.22 37.728 361.22 36.352H367.492C367.492 33.44 366.196 31.6 363.556 31.6C361.092 31.6 359.54 33.264 359.54 35.92C359.54 38.48 361.092 40.24 363.636 40.24C365.732 40.24 366.948 39.056 367.364 37.504H365.684C365.54 38 364.98 38.864 363.588 38.864ZM363.556 32.928C364.916 32.928 365.812 33.84 365.812 35.104H361.22C361.22 33.84 362.196 32.928 363.556 32.928ZM377.435 28.56V32.816H377.403C376.971 32.192 376.171 31.6 374.907 31.6C372.811 31.6 371.259 33.232 371.259 35.92C371.259 38.608 372.811 40.24 374.907 40.24C376.171 40.24 376.971 39.616 377.403 39.056H377.435V40H379.115V28.56H377.435ZM375.195 38.864C373.723 38.864 372.939 37.52 372.939 35.92C372.939 34.32 373.723 32.976 375.195 32.976C376.571 32.976 377.419 34.096 377.419 35.92C377.419 37.728 376.571 38.864 375.195 38.864ZM381.541 30.448C382.037 30.448 382.501 30.128 382.501 29.552C382.501 28.976 382.037 28.672 381.541 28.672C381.077 28.672 380.597 28.976 380.597 29.552C380.597 30.128 381.077 30.448 381.541 30.448ZM380.709 31.824V40H382.389V31.824H380.709ZM387.953 29.936V28.56C387.617 28.496 387.249 28.448 386.833 28.448C385.489 28.448 384.753 29.056 384.753 30.784V31.824H383.585V33.2H384.753V40H386.449V33.2H387.953V31.824H386.449V30.928C386.449 30 386.865 29.888 387.953 29.936ZM392.797 29.936V28.56C392.461 28.496 392.093 28.448 391.677 28.448C390.333 28.448 389.597 29.056 389.597 30.784V31.824H388.429V33.2H389.597V40H391.293V33.2H392.797V31.824H391.293V30.928C391.293 30 391.709 29.888 392.797 29.936ZM397.291 38.864C395.803 38.864 394.923 37.728 394.923 36.352H401.195C401.195 33.44 399.899 31.6 397.259 31.6C394.795 31.6 393.243 33.264 393.243 35.92C393.243 38.48 394.795 40.24 397.339 40.24C399.435 40.24 400.651 39.056 401.067 37.504H399.387C399.243 38 398.683 38.864 397.291 38.864ZM397.259 32.928C398.619 32.928 399.515 33.84 399.515 35.104H394.923C394.923 33.84 395.899 32.928 397.259 32.928ZM406.235 31.632C405.163 31.632 404.491 32.336 404.059 33.36H404.027V31.824H402.347V40H404.027V35.824C404.027 34.08 405.323 32.992 406.939 33.264H406.971V31.68C406.731 31.648 406.523 31.632 406.235 31.632ZM411.4 38.864C409.912 38.864 409.032 37.728 409.032 36.352H415.304C415.304 33.44 414.008 31.6 411.368 31.6C408.904 31.6 407.352 33.264 407.352 35.92C407.352 38.48 408.904 40.24 411.448 40.24C413.544 40.24 414.76 39.056 415.176 37.504H413.496C413.352 38 412.792 38.864 411.4 38.864ZM411.368 32.928C412.728 32.928 413.624 33.84 413.624 35.104H409.032C409.032 33.84 410.008 32.928 411.368 32.928ZM420.856 31.6C419.448 31.6 418.6 32.24 418.168 32.88H418.136V31.824H416.456V40H418.136V35.024C418.136 33.808 418.968 33.024 420.264 33.024C421.416 33.024 421.88 33.728 421.88 34.832V40H423.576V34.352C423.576 32.48 422.376 31.6 420.856 31.6ZM428.86 33.2V31.824H427.324V29.248H425.628V31.824H424.444V33.2H425.628V37.776C425.628 39.504 426.364 40.112 427.708 40.112C428.156 40.112 428.524 40.064 428.86 39.984V38.608C427.772 38.672 427.324 38.56 427.324 37.632V33.2H428.86ZM314.032 51.824L316.544 60H318.224L319.968 53.76H320L321.76 60H323.456L325.952 51.824H324.176L322.528 58.032H322.496L320.816 51.824H319.168L317.504 58.032H317.472L315.808 51.824H314.032ZM331.478 53.968C331.478 54.752 330.71 54.912 329.446 55.152C327.398 55.552 326.07 56.112 326.07 57.904C326.07 59.28 327.094 60.24 328.758 60.24C330.022 60.24 330.95 59.744 331.462 59.024H331.494C331.654 59.824 332.07 60.144 332.966 60.144C333.286 60.144 333.558 60.112 333.942 59.968V59.168C333.286 59.232 333.158 58.928 333.158 58.352V54.464C333.158 52.288 331.814 51.6 330.006 51.6C327.542 51.6 326.534 52.832 326.454 54.4H328.086C328.166 53.344 328.662 52.928 330.006 52.928C331.126 52.928 331.478 53.376 331.478 53.968ZM329.126 58.912C328.214 58.912 327.766 58.496 327.766 57.744C327.766 56.912 328.374 56.512 329.766 56.208C330.55 56.048 331.206 55.856 331.478 55.664V56.896C331.478 58.224 330.518 58.912 329.126 58.912ZM341.938 51.824H340.146L338.05 58.08H338.018L335.73 51.824H333.922L336.882 59.168C337.186 59.936 336.962 60.576 336.658 60.944C336.29 61.392 335.762 61.44 335.058 61.344H334.914V62.624C335.234 62.704 335.634 62.784 336.114 62.784C337.682 62.784 338.21 61.776 338.674 60.512L341.938 51.824ZM346.211 55.056C345.027 54.784 344.115 54.72 344.115 53.888C344.115 53.312 344.659 52.928 345.667 52.928C346.979 52.928 347.299 53.584 347.411 54.224H349.043C348.931 52.8 347.875 51.6 345.651 51.6C343.603 51.6 342.419 52.672 342.419 54.016C342.419 55.872 344.179 56.128 345.475 56.432C346.675 56.72 347.651 56.8 347.651 57.824C347.651 58.336 347.155 58.912 345.987 58.912C344.259 58.912 343.875 58.16 343.795 57.28H342.163C342.243 59.008 343.379 60.24 346.019 60.24C348.003 60.24 349.347 59.264 349.347 57.696C349.347 55.744 347.715 55.408 346.211 55.056ZM357.423 53.2V51.824H355.887V49.248H354.191V51.824H353.007V53.2H354.191V57.776C354.191 59.504 354.927 60.112 356.271 60.112C356.719 60.112 357.087 60.064 357.423 59.984V58.608C356.335 58.672 355.887 58.56 355.887 57.632V53.2H357.423ZM362.246 60.24C359.686 60.24 358.134 58.464 358.134 55.92C358.134 53.376 359.686 51.6 362.246 51.6C364.806 51.6 366.358 53.376 366.358 55.92C366.358 58.464 364.806 60.24 362.246 60.24ZM362.246 58.864C363.846 58.864 364.678 57.6 364.678 55.92C364.678 54.224 363.846 52.976 362.246 52.976C360.646 52.976 359.814 54.224 359.814 55.92C359.814 57.6 360.646 58.864 362.246 58.864ZM374.182 58.864C372.694 58.864 371.814 57.728 371.814 56.352H378.086C378.086 53.44 376.79 51.6 374.15 51.6C371.686 51.6 370.134 53.264 370.134 55.92C370.134 58.48 371.686 60.24 374.23 60.24C376.326 60.24 377.542 59.056 377.958 57.504H376.278C376.134 58 375.574 58.864 374.182 58.864ZM374.15 52.928C375.51 52.928 376.406 53.84 376.406 55.104H371.814C371.814 53.84 372.79 52.928 374.15 52.928ZM384.182 53.968C384.182 54.752 383.414 54.912 382.15 55.152C380.102 55.552 378.774 56.112 378.774 57.904C378.774 59.28 379.798 60.24 381.462 60.24C382.726 60.24 383.654 59.744 384.166 59.024H384.198C384.358 59.824 384.774 60.144 385.67 60.144C385.99 60.144 386.262 60.112 386.646 59.968V59.168C385.99 59.232 385.862 58.928 385.862 58.352V54.464C385.862 52.288 384.518 51.6 382.71 51.6C380.246 51.6 379.238 52.832 379.158 54.4H380.789C380.87 53.344 381.366 52.928 382.71 52.928C383.83 52.928 384.182 53.376 384.182 53.968ZM381.83 58.912C380.918 58.912 380.47 58.496 380.47 57.744C380.47 56.912 381.078 56.512 382.47 56.208C383.254 56.048 383.91 55.856 384.182 55.664V56.896C384.182 58.224 383.222 58.912 381.83 58.912ZM391.516 51.632C390.444 51.632 389.772 52.336 389.34 53.36H389.308V51.824H387.628V60H389.308V55.824C389.308 54.08 390.604 52.992 392.22 53.264H392.252V51.68C392.012 51.648 391.804 51.632 391.516 51.632ZM397.731 51.6C396.323 51.6 395.475 52.24 395.043 52.88H395.011V51.824H393.331V60H395.011V55.024C395.011 53.808 395.843 53.024 397.139 53.024C398.291 53.024 398.755 53.728 398.755 54.832V60H400.451V54.352C400.451 52.48 399.251 51.6 397.731 51.6Z" fill="white"/>
</svg>
