<svg width="32" height="32" viewBox="0 0 32 32" fill="none" xmlns="http://www.w3.org/2000/svg">
<rect width="32" height="32" rx="16" fill="#011E00"/>
<rect x="0.5" y="0.5" width="31" height="31" rx="15.5" stroke="white" stroke-opacity="0.25"/>
<path d="M18 16C18 16.3956 17.8827 16.7822 17.6629 17.1111C17.4432 17.44 17.1308 17.6964 16.7654 17.8478C16.3999 17.9991 15.9978 18.0387 15.6098 17.9616C15.2219 17.8844 14.8655 17.6939 14.5858 17.4142C14.3061 17.1345 14.1156 16.7781 14.0384 16.3902C13.9613 16.0022 14.0009 15.6001 14.1522 15.2346C14.3036 14.8692 14.56 14.5568 14.8889 14.3371C15.2178 14.1173 15.6044 14 16 14C16.5299 14.0016 17.0377 14.2129 17.4124 14.5876C17.7871 14.9623 17.9984 15.4701 18 16ZM22.25 13.25V18.75C22.25 19.6783 21.8813 20.5685 21.2249 21.2249C20.5685 21.8813 19.6783 22.25 18.75 22.25H13.25C12.3217 22.25 11.4315 21.8813 10.7751 21.2249C10.1187 20.5685 9.75 19.6783 9.75 18.75V13.25C9.75 12.3217 10.1187 11.4315 10.7751 10.7751C11.4315 10.1187 12.3217 9.75 13.25 9.75H18.75C19.6783 9.75 20.5685 10.1187 21.2249 10.7751C21.8813 11.4315 22.25 12.3217 22.25 13.25ZM19 16C19 15.4067 18.8241 14.8266 18.4944 14.3333C18.1648 13.8399 17.6962 13.4554 17.1481 13.2284C16.5999 13.0013 15.9967 12.9419 15.4147 13.0576C14.8328 13.1734 14.2982 13.4591 13.8787 13.8787C13.4591 14.2982 13.1734 14.8328 13.0576 15.4147C12.9419 15.9967 13.0013 16.5999 13.2284 17.1481C13.4554 17.6962 13.8399 18.1648 14.3333 18.4944C14.8266 18.8241 15.4067 19 16 19C16.7956 19 17.5587 18.6839 18.1213 18.1213C18.6839 17.5587 19 16.7956 19 16ZM20 12.75C20 12.6017 19.956 12.4567 19.8736 12.3333C19.7912 12.21 19.6741 12.1139 19.537 12.0571C19.4 12.0003 19.2492 11.9855 19.1037 12.0144C18.9582 12.0433 18.8246 12.1148 18.7197 12.2197C18.6148 12.3246 18.5434 12.4582 18.5144 12.6037C18.4855 12.7492 18.5003 12.9 18.5571 13.037C18.6139 13.1741 18.71 13.2912 18.8333 13.3736C18.9567 13.456 19.1017 13.5 19.25 13.5C19.4489 13.5 19.6397 13.421 19.7803 13.2803C19.921 13.1397 20 12.9489 20 12.75Z" fill="white"/>
</svg>
