<svg width="32" height="32" viewBox="0 0 32 32" fill="none" xmlns="http://www.w3.org/2000/svg">
<rect width="32" height="32" rx="16" fill="#011E00"/>
<rect x="0.5" y="0.5" width="31" height="31" rx="15.5" stroke="white" stroke-opacity="0.25"/>
<path d="M16.6667 22H14V14H16.6667V15.3333C16.9474 14.9762 17.3037 14.6856 17.71 14.4824C18.1163 14.2792 18.5625 14.1684 19.0167 14.158C19.8109 14.1624 20.571 14.4816 21.1303 15.0456C21.6895 15.6096 22.0023 16.3724 22 17.1667V22H19.3333V17.5C19.2818 17.1397 19.1018 16.8102 18.8265 16.5721C18.5513 16.3339 18.1993 16.2032 17.8353 16.204C17.6724 16.2091 17.5123 16.2472 17.3644 16.3157C17.2166 16.3843 17.0841 16.482 16.975 16.6031C16.8658 16.7241 16.7822 16.866 16.7293 17.0201C16.6763 17.1742 16.655 17.3374 16.6667 17.5V22ZM12.6667 22H10V14H12.6667V22ZM11.3333 12.6667C10.9797 12.6667 10.6406 12.5262 10.3905 12.2761C10.1405 12.0261 10 11.687 10 11.3333C10 10.9797 10.1405 10.6406 10.3905 10.3905C10.6406 10.1405 10.9797 10 11.3333 10C11.687 10 12.0261 10.1405 12.2761 10.3905C12.5262 10.6406 12.6667 10.9797 12.6667 11.3333C12.6667 11.687 12.5262 12.0261 12.2761 12.2761C12.0261 12.5262 11.687 12.6667 11.3333 12.6667Z" fill="white"/>
</svg>
