<svg width="32" height="32" viewBox="0 0 32 32" fill="none" xmlns="http://www.w3.org/2000/svg">
<rect width="32" height="32" rx="16" fill="#011E00"/>
<rect x="0.5" y="0.5" width="31" height="31" rx="15.5" stroke="white" stroke-opacity="0.25"/>
<path d="M22.973 11.9998C22.4597 12.2332 21.9064 12.3865 21.333 12.4598C21.9197 12.1065 22.373 11.5465 22.5864 10.8732C22.033 11.2065 21.4197 11.4398 20.773 11.5732C20.2464 10.9998 19.5064 10.6665 18.6664 10.6665C17.0997 10.6665 15.8197 11.9465 15.8197 13.5265C15.8197 13.7532 15.8464 13.9732 15.893 14.1798C13.5197 14.0598 11.4064 12.9198 9.9997 11.1932C9.75303 11.6132 9.61303 12.1065 9.61303 12.6265C9.61303 13.6198 10.113 14.4998 10.8864 14.9998C10.413 14.9998 9.97303 14.8665 9.58637 14.6665V14.6865C9.58637 16.0732 10.573 17.2332 11.8797 17.4932C11.4602 17.608 11.0198 17.624 10.593 17.5398C10.7741 18.1082 11.1287 18.6054 11.607 18.9618C12.0854 19.3181 12.6633 19.5156 13.2597 19.5265C12.2488 20.3268 10.9957 20.7594 9.70637 20.7532C9.4797 20.7532 9.25303 20.7398 9.02637 20.7132C10.293 21.5265 11.7997 21.9998 13.413 21.9998C18.6664 21.9998 21.553 17.6398 21.553 13.8598C21.553 13.7332 21.553 13.6132 21.5464 13.4865C22.1064 13.0865 22.5864 12.5798 22.973 11.9998Z" fill="white"/>
</svg>
