<svg width="208" height="175" viewBox="0 0 208 175" fill="none" xmlns="http://www.w3.org/2000/svg">
<g id="ukraine-help 1" clip-path="url(#clip0_16_2)">
<g id="Layer_121">
<path id="Vector" d="M19.542 172.607H188.214C188.842 172.607 189.365 173.117 189.365 173.768V173.856C189.365 174.49 188.859 175.018 188.214 175.018H19.542C18.9139 175.018 18.3904 174.507 18.3904 173.856V173.768C18.3904 173.117 18.9139 172.607 19.542 172.607Z" fill="url(#paint0_linear_16_2)"/>
</g>
<g id="Layer_120">
<g id="Group">
<path id="Vector_2" d="M128.611 123.851L111.04 123.007C97.3959 122.356 84.6238 116.039 75.7601 105.552L49.5703 74.5677C45.4177 69.6587 38.5954 68.0751 32.7328 70.644C24.1658 74.3917 21.2868 85.2127 26.8528 92.7785L43.9346 116.074C56.253 132.878 74.1897 144.613 94.4122 149.118L126.22 156.209" fill="url(#paint1_radial_16_2)"/>
<path id="Vector_3" d="M44.4755 141.605L8.2879 92.2507C2.73937 84.6848 5.61832 73.8639 14.1679 70.1162C20.0305 67.5473 26.8702 69.1484 31.0055 74.0398L57.8582 105.816C69.0251 119.03 84.9204 127.247 102.072 128.672L111.86 129.499" fill="url(#paint2_radial_16_2)"/>
</g>
</g>
<path id="Vector_4" d="M91.5682 18.5275C100.013 7.7242 112.942 0.580625 127.651 0.03518C127.93 0.017585 128.209 0.017585 128.489 0.017585C161.57 -0.668621 183.503 34.4686 169.056 64.5033C157.261 89.0308 140.353 110.69 119.468 128.021L95.8604 147.622L70.9967 129.658C49.012 113.769 30.7088 93.2888 17.3086 69.6235C0.907319 40.6269 20.4668 4.09963 53.5311 2.53367C53.8103 2.51608 54.0894 2.51608 54.3686 2.49848C69.06 2.05861 82.4253 8.32243 91.5682 18.5275Z" fill="url(#paint3_linear_16_2)"/>
<path id="Vector_5" d="M91.5682 18.5275C100.013 7.7242 112.942 0.580625 127.651 0.03518C127.93 0.017585 128.209 0.017585 128.489 0.017585C161.57 -0.668621 183.503 34.4686 169.056 64.5033C157.261 89.0308 140.353 110.69 119.468 128.021L95.8604 147.622L70.9967 129.658C49.012 113.769 30.7088 93.2888 17.3086 69.6235C0.907319 40.6269 20.4668 4.09963 53.5311 2.53367C53.8103 2.51608 54.0894 2.51608 54.3686 2.49848C69.06 2.05861 82.4253 8.32243 91.5682 18.5275Z" fill="url(#paint4_radial_16_2)"/>
<g id="Mask group">
<mask id="mask0_16_2" style="mask-type:luminance" maskUnits="userSpaceOnUse" x="4" y="66" width="122" height="80">
<g id="Group_2">
<g id="Group_3">
<path id="Vector_6" d="M125.592 66.1396H4.13522V145.44H125.592V66.1396Z" fill="white"/>
</g>
</g>
</mask>
<g mask="url(#mask0_16_2)">
<path id="Vector_7" d="M92.0567 19.073C91.8997 18.897 91.7427 18.7035 91.5856 18.5275C82.4428 8.30484 69.0774 2.05861 54.3686 2.49849C54.0894 2.49849 53.8103 2.51608 53.5311 2.53368C20.4668 4.09963 0.907319 40.6269 17.3086 69.6235C30.7088 93.3064 49.012 113.787 70.9967 129.658L94.4297 146.584H97.1167L103.956 140.901V49.6179C103.607 37.8821 99.1581 27.2547 92.0567 19.073Z" fill="url(#paint5_radial_16_2)"/>
</g>
</g>
<g id="Mask group_2">
<mask id="mask1_16_2" style="mask-type:luminance" maskUnits="userSpaceOnUse" x="-8" y="-1" width="121" height="68">
<g id="Group_4">
<g id="Group_5">
<path id="Vector_8" d="M112.366 -0.211182H-7.4155V66.1396H112.366V-0.211182Z" fill="white"/>
</g>
</g>
</mask>
<g mask="url(#mask1_16_2)">
<path id="Vector_9" d="M92.0567 19.073C91.8997 18.897 91.7426 18.7035 91.5856 18.5275C82.4427 8.30484 69.0774 2.05861 54.3686 2.49849C54.0894 2.49849 53.8102 2.51608 53.5311 2.53368C20.4667 4.09963 0.907289 40.6269 17.3086 69.6235C30.7088 93.3064 49.012 113.787 70.9967 129.658L94.4296 146.584H97.1167L103.956 140.901V49.6179C103.607 37.8821 99.1581 27.2547 92.0567 19.073Z" fill="url(#paint6_radial_16_2)"/>
</g>
</g>
<path id="Vector_10" d="M91.5682 18.5275C100.013 7.7242 112.942 0.580625 127.651 0.03518C127.93 0.017585 128.209 0.017585 128.489 0.017585C161.57 -0.668621 183.503 34.4686 169.056 64.5033C157.261 89.0308 140.353 110.69 119.468 128.021L95.8604 147.622L70.9967 129.658C49.012 113.769 30.7088 93.2888 17.3086 69.6235C0.907319 40.6269 20.4668 4.09963 53.5311 2.53367C53.8103 2.51608 54.0894 2.51608 54.3686 2.49848C69.06 2.05861 82.4253 8.32243 91.5682 18.5275Z" fill="url(#paint7_radial_16_2)"/>
<g id="Layer_118">
<g id="Group_6">
<path id="Vector_11" d="M116.031 129.957L91.8473 127.863C72.7416 126.209 54.9793 117.306 42.1549 102.931L26.7132 85.6348C22.6827 81.1129 16.2966 79.547 10.6434 81.676C0.837513 85.3709 -3.05344 97.2475 2.63468 106.115L5.21701 110.145C21.8975 136.115 46.3075 156.05 74.9575 167.117C88.5147 172.343 102.892 175.035 117.392 175.035H156.563C185.858 175.035 209.239 150.384 207.93 120.878C206.866 96.878 190.761 76.2215 167.887 69.5354C143.651 62.4446 118.438 59.4183 93.2432 60.5619L73.3348 61.4593C66.9487 61.7408 61.9062 67.0545 61.9062 73.5119C61.9062 87.975 73.5267 99.6756 87.8517 99.6756H89.7536C102.456 99.6756 115.123 100.503 127.703 102.139C121.998 111.13 117.932 121.089 115.682 131.54L115.437 132.666" fill="url(#paint8_radial_16_2)"/>
<path id="Vector_12" d="M127.721 102.104C138.905 103.564 150.02 105.658 160.995 108.403L166.805 107.33L176.75 72.949C173.941 71.5766 170.992 70.4153 167.904 69.5179C143.669 62.4271 118.456 59.4008 93.2606 60.5445L73.3522 61.4418C66.9662 61.7233 61.9237 67.037 61.9237 73.4944C61.9237 87.9575 73.5442 99.6582 87.8692 99.6582H89.771C102.473 99.6406 115.158 100.468 127.721 102.104Z" fill="url(#paint9_radial_16_2)"/>
<path id="Vector_13" opacity="0.5" d="M81.6925 83.8051C87.6598 83.8051 92.4929 78.5442 92.4929 72.0516C92.4929 66.8611 89.3871 62.4447 85.0949 60.8964L77.4526 61.2483C73.5965 63.043 70.9095 67.213 70.9095 72.0692C70.9095 78.5442 75.7426 83.8051 81.6925 83.8051Z" fill="url(#paint10_radial_16_2)"/>
<path id="Vector_14" opacity="0.5" d="M81.6925 83.8051C87.6598 83.8051 92.4929 78.5442 92.4929 72.0516C92.4929 66.8611 89.3871 62.4447 85.0949 60.8964L77.4526 61.2483C73.5965 63.043 70.9095 67.213 70.9095 72.0692C70.9095 78.5442 75.7426 83.8051 81.6925 83.8051Z" fill="url(#paint11_radial_16_2)"/>
<path id="Vector_15" opacity="0.5" d="M81.6925 83.8051C87.6598 83.8051 92.4929 78.5442 92.4929 72.0516C92.4929 66.8611 89.3871 62.4447 85.0949 60.8964L77.4526 61.2483C73.5965 63.043 70.9095 67.213 70.9095 72.0692C70.9095 78.5442 75.7426 83.8051 81.6925 83.8051Z" fill="url(#paint12_radial_16_2)"/>
<path id="Vector_16" opacity="0.5" d="M81.6925 82.9605C75.8473 82.9605 71.084 77.8931 70.9095 71.5765C70.9095 71.7349 70.9095 71.8933 70.9095 72.0516C70.9095 78.5442 75.7426 83.8051 81.7099 83.8051C87.6772 83.8051 92.5104 78.5442 92.5104 72.0516C92.5104 71.8933 92.5104 71.7349 92.5104 71.5765C92.301 77.9107 87.5376 82.9605 81.6925 82.9605Z" fill="url(#paint13_radial_16_2)"/>
<path id="Vector_17" d="M160.995 108.403C150.02 105.658 138.905 103.564 127.721 102.104L125.749 105.377C123.481 109.318 121.509 113.418 119.869 117.658C132.781 117.306 160.995 108.403 160.995 108.403Z" fill="url(#paint14_radial_16_2)"/>
<g id="Group_7">
<path id="Vector_18" d="M116.031 129.957L91.8473 127.863C89.0207 127.617 86.2116 127.212 83.4547 126.649V147.622H113.71L114.321 140.831C114.6 137.699 115.071 134.584 115.716 131.523L115.472 132.649L116.031 129.957Z" fill="url(#paint15_radial_16_2)"/>
<path id="Vector_19" d="M115.699 131.505C115.804 131.048 115.908 130.59 116.013 130.133C115.908 130.59 115.804 131.048 115.699 131.505Z" fill="url(#paint16_radial_16_2)"/>
</g>
</g>
</g>
<g id="Layer_117">
<g id="Group_8">
<path id="Vector_20" d="M151.084 23.9468H151.101C147.577 24.2987 144.837 27.2019 144.663 30.7737L144.349 37.5478L144.035 30.7737C143.878 27.2019 141.121 24.2987 137.596 23.9468H137.614C141.138 23.5949 143.878 20.7093 144.052 17.1375L144.349 11.1904L144.646 17.1375C144.82 20.6917 147.559 23.5949 151.084 23.9468Z" fill="white"/>
<path id="Vector_21" d="M181.322 10.8737C178.792 11.12 176.82 13.2138 176.715 15.7827L176.489 20.6565L176.262 15.7827C176.14 13.2138 174.168 11.12 171.638 10.8737H171.655C174.185 10.6273 176.157 8.55113 176.279 5.98225L176.489 1.70667L176.698 5.98225C176.82 8.55113 178.792 10.6273 181.322 10.8737Z" fill="#FFD500"/>
</g>
</g>
</g>
<defs>
<linearGradient id="paint0_linear_16_2" x1="18.3989" y1="173.807" x2="189.36" y2="173.807" gradientUnits="userSpaceOnUse">
<stop stop-color="#C5D1C3" stop-opacity="0"/>
<stop offset="0.3094" stop-color="#C5D1C3"/>
<stop offset="0.3737" stop-color="#C5D1C3"/>
<stop offset="0.7504" stop-color="#C5D1C3"/>
<stop offset="1" stop-color="#C5D1C3" stop-opacity="0.0142853"/>
</linearGradient>
<radialGradient id="paint1_radial_16_2" cx="0" cy="0" r="1" gradientUnits="userSpaceOnUse" gradientTransform="translate(102.447 86.0751) rotate(35.2287) scale(97.687 64.4614)">
<stop offset="0.6772" stop-color="#9B8084"/>
<stop offset="0.7646" stop-color="#8F766F"/>
<stop offset="0.9439" stop-color="#6F5D3A"/>
<stop offset="1" stop-color="#645528"/>
</radialGradient>
<radialGradient id="paint2_radial_16_2" cx="0" cy="0" r="1" gradientUnits="userSpaceOnUse" gradientTransform="translate(69.1282 91.5311) rotate(44.4094) scale(68.1926 51.3492)">
<stop offset="0.6772" stop-color="#9B8084"/>
<stop offset="0.7646" stop-color="#8F766F"/>
<stop offset="0.9439" stop-color="#6F5D3A"/>
<stop offset="1" stop-color="#645528"/>
</radialGradient>
<linearGradient id="paint3_linear_16_2" x1="92.4913" y1="-15.6338" x2="92.4913" y2="147.915" gradientUnits="userSpaceOnUse">
<stop offset="0.5" stop-color="#FFD500"/>
</linearGradient>
<radialGradient id="paint4_radial_16_2" cx="0" cy="0" r="1" gradientUnits="userSpaceOnUse" gradientTransform="translate(152.312 73.3446) rotate(123.017) scale(107.964 83.283)">
<stop offset="0.6771" stop-color="#005BBB" stop-opacity="0"/>
<stop offset="0.7241" stop-color="#0051A6" stop-opacity="0.0728396"/>
<stop offset="0.8212" stop-color="#003770" stop-opacity="0.2232"/>
<stop offset="0.9588" stop-color="#000D1B" stop-opacity="0.4364"/>
<stop offset="0.9998" stop-opacity="0.5"/>
</radialGradient>
<radialGradient id="paint5_radial_16_2" cx="0" cy="0" r="1" gradientUnits="userSpaceOnUse" gradientTransform="translate(96.5231 69.3555) rotate(49.2801) scale(99.0522 80.5224)">
<stop offset="0.6756" stop-color="#FFD500"/>
<stop offset="1" stop-color="#FFD500" stop-opacity="0"/>
</radialGradient>
<radialGradient id="paint6_radial_16_2" cx="0" cy="0" r="1" gradientUnits="userSpaceOnUse" gradientTransform="translate(96.5231 69.3555) rotate(49.2801) scale(99.0522 80.5224)">
<stop offset="0.6755" stop-color="#005BBB"/>
<stop offset="1" stop-color="#005BBB" stop-opacity="0"/>
</radialGradient>
<radialGradient id="paint7_radial_16_2" cx="0" cy="0" r="1" gradientUnits="userSpaceOnUse" gradientTransform="translate(124.424 86.7079) rotate(-174.538) scale(61.2656 25.5836)">
<stop offset="0.6769" stop-color="#FFA000" stop-opacity="0.5"/>
<stop offset="1" stop-color="#FFA000" stop-opacity="0"/>
</radialGradient>
<radialGradient id="paint8_radial_16_2" cx="0" cy="0" r="1" gradientUnits="userSpaceOnUse" gradientTransform="translate(109.301 80.1046) rotate(16.1741) scale(120.257 87.3513)">
<stop offset="0.6772" stop-color="#9B8084"/>
<stop offset="0.7646" stop-color="#8F766F"/>
<stop offset="0.9439" stop-color="#6F5D3A"/>
<stop offset="1" stop-color="#645528"/>
</radialGradient>
<radialGradient id="paint9_radial_16_2" cx="0" cy="0" r="1" gradientUnits="userSpaceOnUse" gradientTransform="translate(141.27 72.4974) rotate(16.1741) scale(78.9908 50.4955)">
<stop offset="0.6772" stop-color="#9B8084"/>
<stop offset="0.7646" stop-color="#8F766F"/>
<stop offset="0.9439" stop-color="#6F5D3A"/>
<stop offset="1" stop-color="#645528"/>
</radialGradient>
<radialGradient id="paint10_radial_16_2" cx="0" cy="0" r="1" gradientUnits="userSpaceOnUse" gradientTransform="translate(83.7276 71.844) scale(15.9643 16.0986)">
<stop offset="0.426" stop-color="#E4EBE4"/>
<stop offset="1" stop-color="#D5E0D5" stop-opacity="0"/>
</radialGradient>
<radialGradient id="paint11_radial_16_2" cx="0" cy="0" r="1" gradientUnits="userSpaceOnUse" gradientTransform="translate(83.7276 71.844) scale(13.0044 13.1138)">
<stop offset="0.7516" stop-color="#D5E0D5" stop-opacity="0"/>
<stop offset="1" stop-color="#E4EBE4"/>
</radialGradient>
<radialGradient id="paint12_radial_16_2" cx="0" cy="0" r="1" gradientUnits="userSpaceOnUse" gradientTransform="translate(92.5753 71.538) scale(8.86192 11.9901)">
<stop offset="0.7516" stop-color="#E4EBE4"/>
<stop offset="1" stop-color="#D5E0D5" stop-opacity="0"/>
</radialGradient>
<radialGradient id="paint13_radial_16_2" cx="0" cy="0" r="1" gradientUnits="userSpaceOnUse" gradientTransform="translate(79.3527 81.267) scale(10.4102 14.0849)">
<stop offset="0.426" stop-color="#E4EBE4"/>
<stop offset="1" stop-color="#D5E0D5" stop-opacity="0"/>
</radialGradient>
<radialGradient id="paint14_radial_16_2" cx="0" cy="0" r="1" gradientUnits="userSpaceOnUse" gradientTransform="translate(146.988 129.79) rotate(-1.73656) scale(44.4514 34.4157)">
<stop offset="0.6772" stop-color="#9B8084"/>
<stop offset="0.7646" stop-color="#8F766F"/>
<stop offset="0.9439" stop-color="#6F5D3A"/>
<stop offset="1" stop-color="#645528"/>
</radialGradient>
<radialGradient id="paint15_radial_16_2" cx="0" cy="0" r="1" gradientUnits="userSpaceOnUse" gradientTransform="translate(88.1141 144.398) rotate(16.1741) scale(38.3575 29.6618)">
<stop offset="0.7062" stop-color="#645528" stop-opacity="0"/>
<stop offset="1" stop-color="#645528"/>
</radialGradient>
<radialGradient id="paint16_radial_16_2" cx="0" cy="0" r="1" gradientUnits="userSpaceOnUse" gradientTransform="translate(115.875 130.451) rotate(16.1738) scale(1.03105 0.797298)">
<stop offset="0.6772" stop-color="#9B8084"/>
<stop offset="0.7646" stop-color="#8F766F"/>
<stop offset="0.9439" stop-color="#6F5D3A"/>
<stop offset="1" stop-color="#645528"/>
</radialGradient>
<clipPath id="clip0_16_2">
<rect width="208" height="175" fill="white"/>
</clipPath>
</defs>
</svg>
