<svg width="31" height="32" viewBox="0 0 31 32" fill="none" xmlns="http://www.w3.org/2000/svg">
<path id="Union" fill-rule="evenodd" clip-rule="evenodd" d="M21.2627 22.0254C19.8561 23.255 18.015 24 16 24C11.5817 24 8 20.4183 8 16C8 11.5817 11.5817 8 16 8C16.3735 8 16.741 8.02559 17.1009 8.07512L19.5681 0.39932C18.4207 0.138 17.2265 0 16 0C7.16344 0 0 7.16344 0 16C0 24.8366 7.16344 32 16 32C19.2937 32 22.3549 31.0048 24.8993 29.2987L21.2627 22.0254ZM19 14L15 20.5H23L26.5 27.5L30.5 20.5L26.5 14H19ZM23.6578 4.24393C22.8025 4.24393 22.2367 4.7022 22.2367 5.91154H20.1315C20.1315 3.8493 21.2631 2.49994 23.7236 2.49994C25.6841 2.49994 26.9999 3.49287 26.9999 5.17321C26.9999 6.89233 25.522 7.95262 24.281 8.84293C23.8496 9.15248 23.4468 9.44149 23.1446 9.73049V9.75595H26.9999V11.4999H19.9999C19.9999 10.036 20.7894 9.13219 21.592 8.48297C22.0198 8.13917 22.4413 7.83825 22.8303 7.56049C23.9251 6.77892 24.7631 6.18064 24.7631 5.32597C24.7631 4.65128 24.3683 4.24393 23.6578 4.24393Z" fill="white"/>
</svg>
