<svg width="29" height="29" viewBox="0 0 29 29" fill="none" xmlns="http://www.w3.org/2000/svg">
<path id="Vector" d="M14.5 23.4465L7.69348 28.6111C7.35622 28.8854 6.98829 29.0145 6.58971 28.9987C6.19113 28.9841 5.83854 28.8701 5.53194 28.6568C5.22534 28.4435 4.98803 28.1541 4.82002 27.7884C4.65077 27.4228 4.6428 27.0267 4.7961 26.6001L7.41753 18.1448L0.74898 13.4372C0.38106 13.1934 0.15111 12.8735 0.05913 12.4774C-0.0328501 12.0813 -0.0175199 11.7156 0.10512 11.3805C0.22776 11.0453 0.44238 10.7479 0.74898 10.4883C1.05558 10.2299 1.4235 10.1007 1.85274 10.1007H10.085L12.7524 1.32544C12.9057 0.898858 13.1436 0.571004 13.4661 0.341871C13.7875 0.113957 14.1321 0 14.5 0C14.8679 0 15.2125 0.113957 15.5339 0.341871C15.8564 0.571004 16.0943 0.898858 16.2476 1.32544L18.915 10.1007H27.1473C27.5765 10.1007 27.9444 10.2299 28.251 10.4883C28.5576 10.7479 28.7722 11.0453 28.8949 11.3805C29.0175 11.7156 29.0329 12.0813 28.9409 12.4774C28.8489 12.8735 28.6189 13.1934 28.251 13.4372L21.5825 18.1448L24.2039 26.6001C24.3572 27.0267 24.3498 27.4228 24.1818 27.7884C24.0126 28.1541 23.7747 28.4435 23.4681 28.6568C23.1615 28.8701 22.8089 28.9841 22.4103 28.9987C22.0117 29.0145 21.6438 28.8854 21.3065 28.6111L14.5 23.4465Z" fill="white"/>
</svg>
