<svg width="32" height="32" viewBox="0 0 32 32" fill="none" xmlns="http://www.w3.org/2000/svg">
<rect width="32" height="32" rx="16" fill="#011E00"/>
<rect x="0.5" y="0.5" width="31" height="31" rx="15.5" stroke="white" stroke-opacity="0.25"/>
<g clip-path="url(#clip0_443_368)">
<path d="M16.051 9.99902H16.14C16.962 10.002 21.127 10.032 22.25 10.334C22.5895 10.4262 22.8989 10.6058 23.1472 10.855C23.3955 11.1042 23.574 11.4142 23.665 11.754C23.766 12.134 23.837 12.637 23.885 13.156L23.895 13.26L23.917 13.52L23.925 13.624C23.99 14.538 23.998 15.394 23.999 15.581V15.656C23.998 15.85 23.989 16.764 23.917 17.716L23.909 17.821L23.9 17.925C23.85 18.497 23.776 19.065 23.665 19.483C23.5743 19.823 23.3958 20.1331 23.1475 20.3823C22.8991 20.6316 22.5896 20.8111 22.25 20.903C21.09 21.215 16.681 21.237 16.07 21.238H15.928C15.619 21.238 14.341 21.232 13.001 21.186L12.831 21.18L12.744 21.176L12.573 21.169L12.402 21.162C11.292 21.113 10.235 21.034 9.748 20.902C9.40849 20.8102 9.09907 20.6308 8.85072 20.3818C8.60238 20.1327 8.42385 19.8228 8.333 19.483C8.222 19.066 8.148 18.497 8.098 17.925L8.09 17.82L8.082 17.716C8.03265 17.0384 8.0053 16.3594 8 15.68L8 15.557C8.002 15.342 8.01 14.599 8.064 13.779L8.071 13.676L8.074 13.624L8.082 13.52L8.104 13.26L8.114 13.156C8.162 12.637 8.233 12.133 8.334 11.754C8.42469 11.4141 8.60316 11.1039 8.85151 10.8547C9.09986 10.6055 9.40937 10.4259 9.749 10.334C10.236 10.204 11.293 10.124 12.403 10.074L12.573 10.067L12.745 10.061L12.831 10.058L13.002 10.051C13.9537 10.0204 14.9058 10.0034 15.858 10H16.051V9.99902ZM14.4 13.209V18.027L18.557 15.619L14.4 13.209Z" fill="white"/>
</g>
<defs>
<clipPath id="clip0_443_368">
<rect width="16" height="16" fill="white" transform="translate(8 8)"/>
</clipPath>
</defs>
</svg>
